<?xml version="1.0" encoding="UTF-8"?>
<svg width="1440px" height="424px" viewBox="0 0 1440 424" version="1.1" xmlns="http://www.w3.org/2000/svg" xmlns:xlink="http://www.w3.org/1999/xlink">
    <title>homepage-header-background-hello</title>
    <g id="0.0-Homepage-(release-2.0)" stroke="none" stroke-width="1" fill="none" fill-rule="evenodd">
        <g id="Homepage---Desktop-1440-(963px-&amp;-up)" fill="#F3F5F7" fill-rule="nonzero">
            <path d="M69.049896,416 L69.049896,221.409295 C80.2765073,207.688156 98.987526,192.095952 127.054054,192.095952 C157.615385,192.095952 176.950104,203.946027 176.950104,240.743628 L176.950104,416 L273,416 L273,201.451274 C273,145.943028 241.814969,107.274363 173.2079,107.274363 C122.68815,107.274363 87.1372141,130.350825 69.049896,151.556222 L69.049896,0 L-27,0 L-27,416 L69.049896,416 Z M488,424 C534.25,424 584.25,410.869822 614.25,383.984221 L573.625,323.960552 C556.75,338.966469 526.75,349.595661 499.875,349.595661 C454.875,349.595661 428.625,323.960552 423,295.824458 L638,295.824458 L638,275.191321 C638,172.650888 573,107 483.625,107 C389.25,107 323,177.65286 323,265.187377 C323,363.351085 394.875,424 488,424 Z M546,234 L422,234 C425.738693,212.072289 441.939698,182 483.688442,182 C527.929648,182 543.507538,212.698795 546,234 Z M782,416 L782,0 L686,0 L686,416 L782,416 Z M948,416 L948,0 L852,0 L852,416 L948,416 Z M1162.18786,424 C1265.81973,424 1327,350.220907 1327,265.187377 C1327,180.153846 1265.81973,107 1162.18786,107 C1059.80455,107 998,180.153846 998,265.187377 C998,350.220907 1059.80455,424 1162.18786,424 Z M1162.87619,339 C1121.08095,339 1098,305.846809 1098,265.187234 C1098,225.153191 1121.08095,192 1162.87619,192 C1205.29524,192 1229,225.153191 1229,265.187234 C1229,305.846809 1205.29524,339 1162.87619,339 Z M1426,424 C1458.01064,424 1485,397.010638 1485,365 C1485,332.989362 1458.01064,306 1426,306 C1393.98936,306 1367,332.989362 1367,365 C1367,397.010638 1393.98936,424 1426,424 Z" id="homepage-header-background-hello"></path>
        </g>
    </g>
</svg>