<svg id="svg" version="1.1" xmlns="http://www.w3.org/2000/svg" xmlns:xlink="http://www.w3.org/1999/xlink" width="400" height="90.17857142857142" viewBox="0, 0, 400,90.17857142857142"><g id="svgg"><path id="path0" d="M15.833 44.167 L 15.833 77.833 36.167 77.833 L 56.500 77.833 56.500 74.333 L 56.500 70.833 39.750 70.833 L 23.000 70.833 23.000 44.250 L 23.000 17.667 39.750 17.667 L 56.500 17.667 56.500 14.083 L 56.500 10.500 36.167 10.500 L 15.833 10.500 15.833 44.167 M341.333 14.917 L 341.333 18.500 358.333 18.500 L 375.333 18.500 375.333 45.083 L 375.333 71.667 358.333 71.667 L 341.333 71.667 341.333 75.250 L 341.333 78.833 361.833 78.833 L 382.333 78.833 382.333 45.083 L 382.333 11.333 361.833 11.333 L 341.333 11.333 341.333 14.917 M317.167 34.540 L 317.167 39.413 316.750 38.964 C 316.521 38.717,316.333 38.436,316.333 38.341 C 316.333 38.245,316.116 38.167,315.851 38.167 C 315.576 38.167,315.328 38.059,315.273 37.917 C 315.208 37.746,314.941 37.667,314.432 37.667 C 314.022 37.667,313.640 37.592,313.583 37.500 C 313.523 37.403,312.582 37.333,311.323 37.333 C 309.997 37.333,309.167 37.397,309.167 37.500 C 309.167 37.592,308.754 37.667,308.250 37.667 C 307.546 37.667,307.333 37.725,307.333 37.917 C 307.333 38.087,307.160 38.168,306.792 38.171 C 306.418 38.174,306.103 38.326,305.776 38.659 C 305.495 38.946,305.174 39.117,304.985 39.080 C 304.800 39.045,304.667 39.112,304.667 39.242 C 304.667 39.364,304.549 39.509,304.406 39.564 C 304.263 39.619,304.192 39.740,304.249 39.832 C 304.306 39.924,304.236 40.000,304.093 40.000 C 303.950 40.000,303.833 40.075,303.833 40.167 C 303.833 40.258,303.721 40.333,303.583 40.333 C 303.446 40.333,303.333 40.446,303.333 40.583 C 303.333 40.721,303.216 40.833,303.073 40.833 C 302.931 40.833,302.854 40.898,302.903 40.978 C 302.952 41.058,302.763 41.298,302.483 41.513 C 302.092 41.813,301.988 42.007,302.037 42.345 C 302.089 42.699,302.044 42.770,301.807 42.708 C 301.579 42.649,301.528 42.713,301.581 42.990 C 301.622 43.202,301.551 43.388,301.409 43.443 C 301.254 43.502,301.167 43.771,301.167 44.184 C 301.167 44.650,301.096 44.833,300.917 44.833 C 300.702 44.833,300.667 45.343,300.667 48.417 C 300.667 51.491,300.702 52.000,300.917 52.000 C 301.096 52.000,301.167 52.183,301.167 52.649 C 301.167 53.062,301.254 53.331,301.409 53.391 C 301.546 53.443,301.622 53.631,301.585 53.825 C 301.543 54.042,301.607 54.167,301.760 54.167 C 301.916 54.167,302.000 54.342,302.000 54.667 C 302.000 55.000,302.083 55.167,302.250 55.167 C 302.387 55.167,302.500 55.242,302.500 55.333 C 302.500 55.425,302.610 55.500,302.745 55.500 C 302.894 55.500,302.952 55.598,302.894 55.750 C 302.833 55.908,302.896 56.000,303.066 56.000 C 303.213 56.000,303.333 56.112,303.333 56.250 C 303.333 56.387,303.446 56.500,303.583 56.500 C 303.721 56.500,303.833 56.575,303.833 56.667 C 303.833 56.758,303.954 56.833,304.101 56.833 C 304.271 56.833,304.334 56.925,304.273 57.083 C 304.215 57.236,304.273 57.333,304.422 57.333 C 304.557 57.333,304.667 57.446,304.667 57.583 C 304.667 57.721,304.747 57.833,304.845 57.833 C 304.943 57.833,305.137 57.947,305.275 58.085 C 305.414 58.223,305.596 58.293,305.681 58.241 C 305.766 58.188,305.881 58.263,305.936 58.406 C 306.003 58.581,306.250 58.667,306.684 58.667 C 307.150 58.667,307.333 58.737,307.333 58.917 C 307.333 59.108,307.544 59.167,308.232 59.167 C 308.848 59.167,309.159 59.240,309.220 59.400 C 309.367 59.782,313.421 59.779,313.635 59.395 C 313.754 59.184,313.991 59.119,314.564 59.140 C 315.151 59.162,315.333 59.110,315.333 58.918 C 315.333 58.750,315.499 58.667,315.833 58.667 C 316.108 58.667,316.333 58.592,316.333 58.500 C 316.333 58.408,316.486 58.333,316.672 58.333 C 316.858 58.333,317.054 58.221,317.106 58.083 C 317.309 57.554,317.667 57.820,317.667 58.500 L 317.667 59.167 321.000 59.167 L 324.333 59.167 324.333 44.417 L 324.333 29.667 320.750 29.667 L 317.167 29.667 317.167 34.540 M60.557 30.759 C 60.492 30.928,60.196 31.000,59.566 31.000 C 58.878 31.000,58.667 31.059,58.667 31.250 C 58.667 31.431,58.481 31.500,58.000 31.500 C 57.633 31.500,57.333 31.574,57.333 31.663 C 57.333 31.753,57.146 31.874,56.917 31.932 C 56.688 31.989,56.500 32.103,56.500 32.185 C 56.500 32.266,56.313 32.333,56.083 32.333 C 55.824 32.333,55.667 32.428,55.667 32.583 C 55.667 32.721,55.554 32.833,55.417 32.833 C 55.279 32.833,55.167 32.946,55.167 33.083 C 55.167 33.230,55.012 33.336,54.792 33.339 C 54.316 33.345,53.833 33.706,53.833 34.055 C 53.833 34.225,53.742 34.288,53.583 34.227 C 53.433 34.169,53.333 34.226,53.333 34.371 C 53.333 34.502,53.146 34.711,52.917 34.833 C 52.688 34.956,52.500 35.156,52.500 35.278 C 52.500 35.400,52.387 35.500,52.250 35.500 C 52.112 35.500,52.000 35.612,52.000 35.750 C 52.000 35.887,51.915 36.000,51.810 36.000 C 51.530 36.000,51.178 36.528,51.172 36.958 C 51.169 37.178,51.063 37.333,50.917 37.333 C 50.761 37.333,50.667 37.491,50.667 37.750 C 50.667 38.014,50.573 38.167,50.411 38.167 C 50.211 38.167,50.192 38.236,50.324 38.482 C 50.498 38.808,50.177 39.289,49.943 39.054 C 49.883 38.994,49.833 39.182,49.833 39.472 C 49.833 39.830,49.753 40.000,49.583 40.000 C 49.387 40.000,49.333 40.231,49.333 41.083 C 49.333 41.935,49.280 42.167,49.083 42.167 C 48.871 42.167,48.833 42.602,48.833 45.083 C 48.833 47.565,48.871 48.000,49.083 48.000 C 49.280 48.000,49.333 48.231,49.333 49.083 C 49.333 49.935,49.387 50.167,49.583 50.167 C 49.750 50.167,49.833 50.333,49.833 50.667 C 49.833 50.986,49.918 51.167,50.069 51.167 C 50.221 51.167,50.288 51.314,50.258 51.583 C 50.229 51.846,50.296 52.000,50.440 52.000 C 50.571 52.000,50.667 52.176,50.667 52.417 C 50.667 52.676,50.761 52.833,50.917 52.833 C 51.063 52.833,51.169 52.988,51.172 53.208 C 51.178 53.638,51.530 54.167,51.810 54.167 C 51.915 54.167,52.000 54.279,52.000 54.417 C 52.000 54.554,52.112 54.667,52.250 54.667 C 52.387 54.667,52.500 54.766,52.500 54.889 C 52.500 55.011,52.688 55.211,52.917 55.333 C 53.146 55.456,53.333 55.664,53.333 55.796 C 53.333 55.941,53.433 55.998,53.583 55.940 C 53.748 55.876,53.833 55.946,53.833 56.144 C 53.833 56.309,54.021 56.544,54.250 56.667 C 54.479 56.789,54.667 56.989,54.667 57.111 C 54.667 57.247,54.862 57.333,55.167 57.333 C 55.500 57.333,55.667 57.417,55.667 57.583 C 55.667 57.736,55.822 57.833,56.066 57.833 C 56.285 57.833,56.510 57.954,56.567 58.101 C 56.627 58.257,56.775 58.327,56.924 58.270 C 57.069 58.215,57.220 58.280,57.274 58.419 C 57.336 58.579,57.598 58.667,58.018 58.667 C 58.483 58.667,58.667 58.737,58.667 58.917 C 58.667 59.096,58.850 59.167,59.319 59.167 C 59.694 59.167,60.002 59.256,60.041 59.375 C 60.157 59.722,68.000 59.772,68.000 59.425 C 68.000 59.223,68.199 59.167,68.917 59.167 C 69.620 59.167,69.833 59.109,69.833 58.917 C 69.833 58.750,70.000 58.667,70.333 58.667 C 70.608 58.667,70.833 58.592,70.833 58.500 C 70.833 58.408,71.015 58.333,71.238 58.333 C 71.461 58.333,71.755 58.221,71.893 58.083 C 72.030 57.946,72.223 57.833,72.321 57.833 C 72.420 57.833,72.500 57.721,72.500 57.583 C 72.500 57.417,72.667 57.333,73.000 57.333 C 73.275 57.333,73.500 57.253,73.500 57.155 C 73.500 56.924,73.924 56.500,74.155 56.500 C 74.253 56.500,74.333 56.387,74.333 56.250 C 74.333 56.112,74.446 56.000,74.583 56.000 C 74.721 56.000,74.833 55.920,74.833 55.821 C 74.833 55.591,75.257 55.167,75.488 55.167 C 75.586 55.167,75.667 54.867,75.667 54.500 C 75.667 54.019,75.597 53.833,75.417 53.833 C 75.279 53.833,75.167 53.753,75.167 53.654 C 75.167 53.421,74.246 52.500,74.013 52.500 C 73.914 52.500,73.831 52.406,73.828 52.292 C 73.821 52.001,73.000 51.413,73.000 51.699 C 73.000 51.817,72.813 51.711,72.583 51.464 C 72.354 51.217,72.167 50.936,72.167 50.841 C 72.167 50.745,72.062 50.667,71.934 50.667 C 71.807 50.667,71.659 50.554,71.606 50.417 C 71.554 50.279,71.358 50.167,71.172 50.167 C 70.982 50.167,70.833 50.276,70.833 50.417 C 70.833 50.554,70.721 50.667,70.583 50.667 C 70.446 50.667,70.333 50.779,70.333 50.917 C 70.333 51.054,70.221 51.167,70.083 51.167 C 69.946 51.167,69.833 51.284,69.833 51.427 C 69.833 51.569,69.758 51.640,69.667 51.583 C 69.575 51.527,69.500 51.597,69.500 51.740 C 69.500 51.883,69.387 52.000,69.250 52.000 C 69.112 52.000,69.000 52.112,69.000 52.250 C 69.000 52.403,68.845 52.500,68.601 52.500 C 68.382 52.500,68.163 52.603,68.115 52.729 C 68.064 52.860,67.844 52.937,67.597 52.910 C 67.315 52.879,67.167 52.944,67.167 53.098 C 67.167 53.269,66.939 53.333,66.328 53.333 C 65.736 53.333,65.461 53.407,65.394 53.583 C 65.322 53.769,65.026 53.833,64.232 53.833 C 63.396 53.833,63.167 53.779,63.167 53.583 C 63.167 53.391,62.954 53.333,62.250 53.333 C 61.541 53.333,61.333 53.276,61.333 53.080 C 61.333 52.901,61.211 52.849,60.917 52.902 C 60.631 52.954,60.500 52.903,60.500 52.739 C 60.500 52.608,60.387 52.500,60.250 52.500 C 60.112 52.500,60.000 52.387,60.000 52.250 C 60.000 52.094,59.843 52.000,59.583 52.000 C 59.312 52.000,59.167 51.907,59.167 51.732 C 59.167 51.563,59.075 51.500,58.917 51.560 C 58.764 51.619,58.667 51.561,58.667 51.411 C 58.667 51.277,58.592 51.167,58.500 51.167 C 58.408 51.167,58.333 51.054,58.333 50.917 C 58.333 50.779,58.221 50.667,58.083 50.667 C 57.928 50.667,57.833 50.509,57.833 50.250 C 57.833 49.991,57.739 49.833,57.583 49.833 C 57.446 49.833,57.333 49.721,57.333 49.583 C 57.333 49.446,57.268 49.333,57.188 49.333 C 57.108 49.333,56.995 49.033,56.936 48.667 C 56.877 48.300,56.755 48.000,56.665 48.000 C 56.574 48.000,56.500 47.700,56.500 47.333 C 56.500 46.852,56.431 46.667,56.250 46.667 C 56.045 46.667,56.000 46.380,56.000 45.083 C 56.000 43.787,56.045 43.500,56.250 43.500 C 56.430 43.500,56.500 43.316,56.500 42.847 C 56.500 42.488,56.588 42.165,56.697 42.129 C 56.805 42.093,56.911 41.807,56.933 41.495 C 56.954 41.182,57.053 40.899,57.153 40.866 C 57.252 40.833,57.333 40.699,57.333 40.569 C 57.333 40.440,57.446 40.333,57.583 40.333 C 57.739 40.333,57.833 40.176,57.833 39.917 C 57.833 39.657,57.928 39.500,58.083 39.500 C 58.221 39.500,58.333 39.420,58.333 39.321 C 58.333 39.091,58.757 38.667,58.988 38.667 C 59.086 38.667,59.167 38.554,59.167 38.417 C 59.167 38.261,59.324 38.167,59.583 38.167 C 59.887 38.167,60.000 38.077,60.000 37.839 C 60.000 37.615,60.080 37.541,60.250 37.606 C 60.387 37.659,60.500 37.619,60.500 37.518 C 60.500 37.416,60.688 37.333,60.917 37.333 C 61.176 37.333,61.333 37.239,61.333 37.083 C 61.333 36.891,61.546 36.833,62.250 36.833 C 62.954 36.833,63.167 36.775,63.167 36.583 C 63.167 36.387,63.396 36.333,64.232 36.333 C 65.026 36.333,65.322 36.397,65.394 36.583 C 65.461 36.760,65.736 36.833,66.328 36.833 C 66.962 36.833,67.167 36.894,67.167 37.083 C 67.167 37.250,67.333 37.333,67.667 37.333 C 67.942 37.333,68.167 37.408,68.167 37.500 C 68.167 37.592,68.354 37.667,68.583 37.667 C 68.843 37.667,69.000 37.761,69.000 37.917 C 69.000 38.054,69.112 38.167,69.250 38.167 C 69.387 38.167,69.500 38.247,69.500 38.345 C 69.500 38.443,69.607 38.631,69.738 38.762 C 69.869 38.893,70.057 39.000,70.155 39.000 C 70.253 39.000,70.333 39.112,70.333 39.250 C 70.333 39.387,70.446 39.500,70.583 39.500 C 70.721 39.500,70.833 39.612,70.833 39.750 C 70.833 39.890,70.982 40.000,71.172 40.000 C 71.358 40.000,71.554 39.887,71.606 39.750 C 71.659 39.612,71.807 39.500,71.934 39.500 C 72.062 39.500,72.167 39.420,72.167 39.321 C 72.167 39.091,72.591 38.667,72.821 38.667 C 72.920 38.667,73.000 38.554,73.000 38.417 C 73.000 38.261,73.157 38.167,73.417 38.167 C 73.676 38.167,73.833 38.072,73.833 37.917 C 73.833 37.779,73.914 37.667,74.013 37.667 C 74.246 37.667,75.167 36.746,75.167 36.513 C 75.167 36.414,75.279 36.333,75.417 36.333 C 75.597 36.333,75.667 36.148,75.667 35.667 C 75.667 35.300,75.586 35.000,75.488 35.000 C 75.257 35.000,74.833 34.576,74.833 34.345 C 74.833 34.247,74.721 34.167,74.583 34.167 C 74.446 34.167,74.333 34.054,74.333 33.917 C 74.333 33.779,74.253 33.667,74.155 33.667 C 73.924 33.667,73.500 33.243,73.500 33.012 C 73.500 32.914,73.275 32.833,73.000 32.833 C 72.667 32.833,72.500 32.750,72.500 32.583 C 72.500 32.446,72.387 32.333,72.250 32.333 C 72.112 32.333,72.000 32.258,72.000 32.167 C 72.000 32.075,71.818 32.000,71.595 32.000 C 71.373 32.000,71.078 31.887,70.940 31.750 C 70.803 31.613,70.498 31.500,70.262 31.500 C 69.992 31.500,69.833 31.407,69.833 31.250 C 69.833 31.059,69.622 31.000,68.934 31.000 C 68.322 31.000,68.007 30.926,67.947 30.769 C 67.813 30.419,60.691 30.409,60.557 30.759 M177.500 30.758 C 177.500 30.940,177.274 31.000,176.583 31.000 C 175.880 31.000,175.667 31.058,175.667 31.250 C 175.667 31.431,175.481 31.500,175.000 31.500 C 174.633 31.500,174.333 31.574,174.333 31.663 C 174.333 31.753,174.146 31.874,173.917 31.932 C 173.688 31.989,173.500 32.103,173.500 32.185 C 173.500 32.266,173.275 32.333,173.000 32.333 C 172.667 32.333,172.500 32.417,172.500 32.583 C 172.500 32.721,172.425 32.833,172.333 32.833 C 172.242 32.833,172.185 32.927,172.208 33.042 C 172.232 33.161,172.043 33.274,171.766 33.305 C 171.265 33.362,170.833 33.678,170.833 33.988 C 170.833 34.086,170.721 34.167,170.583 34.167 C 170.446 34.167,170.333 34.279,170.333 34.417 C 170.333 34.554,170.253 34.667,170.155 34.667 C 169.924 34.667,169.500 35.091,169.500 35.321 C 169.500 35.420,169.387 35.500,169.250 35.500 C 169.112 35.500,169.000 35.612,169.000 35.750 C 169.000 35.887,168.920 36.000,168.821 36.000 C 168.541 36.000,168.233 36.378,168.108 36.877 C 168.045 37.128,167.920 37.333,167.830 37.333 C 167.740 37.333,167.667 37.521,167.667 37.750 C 167.667 38.009,167.572 38.167,167.417 38.167 C 167.250 38.167,167.167 38.333,167.167 38.667 C 167.167 38.978,167.088 39.151,166.958 39.125 C 166.826 39.099,166.762 39.252,166.781 39.542 C 166.802 39.844,166.731 40.000,166.573 40.000 C 166.389 40.000,166.333 40.252,166.333 41.083 C 166.333 41.935,166.280 42.167,166.083 42.167 C 165.871 42.167,165.833 42.602,165.833 45.083 C 165.833 47.565,165.871 48.000,166.083 48.000 C 166.280 48.000,166.333 48.231,166.333 49.083 C 166.333 49.941,166.386 50.167,166.587 50.167 C 166.773 50.167,166.812 50.276,166.735 50.582 C 166.661 50.877,166.708 51.026,166.899 51.100 C 167.046 51.156,167.167 51.382,167.167 51.601 C 167.167 51.845,167.264 52.000,167.417 52.000 C 167.558 52.000,167.667 52.149,167.667 52.345 C 167.667 52.535,167.779 52.803,167.917 52.940 C 168.054 53.078,168.167 53.343,168.167 53.530 C 168.167 53.758,168.246 53.839,168.408 53.776 C 168.570 53.714,168.619 53.764,168.557 53.925 C 168.494 54.088,168.577 54.167,168.810 54.167 C 169.049 54.167,169.127 54.244,169.060 54.417 C 169.000 54.575,169.063 54.667,169.232 54.667 C 169.379 54.667,169.500 54.747,169.500 54.845 C 169.500 55.076,169.924 55.500,170.155 55.500 C 170.253 55.500,170.333 55.612,170.333 55.750 C 170.333 55.887,170.446 56.000,170.583 56.000 C 170.721 56.000,170.833 56.080,170.833 56.179 C 170.833 56.409,171.257 56.833,171.488 56.833 C 171.586 56.833,171.667 56.946,171.667 57.083 C 171.667 57.239,171.824 57.333,172.083 57.333 C 172.343 57.333,172.500 57.428,172.500 57.583 C 172.500 57.750,172.667 57.833,173.000 57.833 C 173.333 57.833,173.500 57.917,173.500 58.083 C 173.500 58.239,173.657 58.333,173.917 58.333 C 174.146 58.333,174.333 58.408,174.333 58.500 C 174.333 58.592,174.633 58.667,175.000 58.667 C 175.481 58.667,175.667 58.736,175.667 58.917 C 175.667 59.096,175.850 59.167,176.319 59.167 C 176.694 59.167,177.002 59.256,177.041 59.375 C 177.157 59.722,185.000 59.772,185.000 59.425 C 185.000 59.223,185.199 59.167,185.917 59.167 C 186.620 59.167,186.833 59.109,186.833 58.917 C 186.833 58.763,186.989 58.667,187.236 58.667 C 187.458 58.667,187.664 58.592,187.694 58.501 C 187.725 58.411,188.010 58.306,188.327 58.269 C 188.645 58.232,188.933 58.119,188.966 58.018 C 189.000 57.916,189.134 57.833,189.264 57.833 C 189.394 57.833,189.500 57.721,189.500 57.583 C 189.500 57.428,189.657 57.333,189.917 57.333 C 190.176 57.333,190.333 57.239,190.333 57.083 C 190.333 56.946,190.446 56.833,190.583 56.833 C 190.721 56.833,190.833 56.758,190.833 56.667 C 190.833 56.575,190.946 56.500,191.083 56.500 C 191.221 56.500,191.333 56.387,191.333 56.250 C 191.333 56.112,191.408 56.000,191.500 56.000 C 191.592 56.000,191.667 55.887,191.667 55.750 C 191.667 55.612,191.779 55.500,191.917 55.500 C 192.054 55.500,192.167 55.425,192.167 55.333 C 192.167 55.242,192.279 55.167,192.417 55.167 C 192.597 55.167,192.667 54.981,192.667 54.500 C 192.667 54.019,192.597 53.833,192.417 53.833 C 192.279 53.833,192.167 53.721,192.167 53.583 C 192.167 53.446,192.054 53.333,191.917 53.333 C 191.779 53.333,191.667 53.253,191.667 53.155 C 191.667 52.924,191.243 52.500,191.012 52.500 C 190.914 52.500,190.833 52.387,190.833 52.250 C 190.833 52.112,190.729 52.000,190.601 52.000 C 190.473 52.000,190.328 51.893,190.278 51.763 C 190.222 51.618,190.054 51.561,189.844 51.616 C 189.601 51.679,189.500 51.626,189.500 51.436 C 189.500 51.288,189.387 51.167,189.250 51.167 C 189.112 51.167,189.000 51.093,189.000 51.002 C 189.000 50.726,188.442 50.167,188.167 50.167 C 187.891 50.167,187.333 50.726,187.333 51.002 C 187.333 51.093,187.221 51.167,187.083 51.167 C 186.946 51.167,186.833 51.284,186.833 51.427 C 186.833 51.569,186.772 51.648,186.696 51.602 C 186.508 51.485,185.966 52.144,186.088 52.341 C 186.143 52.430,185.927 52.500,185.593 52.500 C 185.174 52.500,185.000 52.574,185.000 52.753 C 185.000 52.932,184.878 52.984,184.583 52.931 C 184.297 52.879,184.167 52.930,184.167 53.094 C 184.167 53.273,183.935 53.333,183.250 53.333 C 182.546 53.333,182.333 53.391,182.333 53.583 C 182.333 53.780,182.102 53.833,181.250 53.833 C 180.398 53.833,180.167 53.780,180.167 53.583 C 180.167 53.391,179.954 53.333,179.250 53.333 C 178.541 53.333,178.333 53.276,178.333 53.080 C 178.333 52.901,178.211 52.849,177.917 52.902 C 177.631 52.954,177.500 52.903,177.500 52.739 C 177.500 52.608,177.387 52.500,177.250 52.500 C 177.112 52.500,177.000 52.387,177.000 52.250 C 177.000 52.094,176.843 52.000,176.583 52.000 C 176.336 52.000,176.167 51.905,176.167 51.766 C 176.167 51.613,176.050 51.562,175.831 51.619 C 175.573 51.687,175.519 51.644,175.599 51.437 C 175.668 51.257,175.613 51.167,175.434 51.167 C 175.287 51.167,175.167 51.054,175.167 50.917 C 175.167 50.779,175.092 50.667,175.000 50.667 C 174.908 50.667,174.833 50.514,174.833 50.328 C 174.833 50.142,174.721 49.946,174.583 49.894 C 174.446 49.841,174.333 49.693,174.333 49.566 C 174.333 49.438,174.221 49.333,174.083 49.333 C 173.903 49.333,173.833 49.148,173.833 48.667 C 173.833 48.300,173.758 48.000,173.667 48.000 C 173.575 48.000,173.500 47.700,173.500 47.333 C 173.500 46.852,173.431 46.667,173.250 46.667 C 173.045 46.667,173.000 46.380,173.000 45.083 C 173.000 43.787,173.045 43.500,173.250 43.500 C 173.431 43.500,173.500 43.315,173.500 42.833 C 173.500 42.467,173.575 42.167,173.667 42.167 C 173.758 42.167,173.833 41.867,173.833 41.500 C 173.833 41.019,173.903 40.833,174.083 40.833 C 174.221 40.833,174.333 40.729,174.333 40.601 C 174.333 40.473,174.446 40.326,174.583 40.273 C 174.721 40.220,174.833 40.025,174.833 39.839 C 174.833 39.652,174.908 39.500,175.000 39.500 C 175.092 39.500,175.167 39.387,175.167 39.250 C 175.167 39.112,175.279 39.000,175.417 39.000 C 175.554 39.000,175.667 38.925,175.667 38.833 C 175.667 38.742,175.779 38.667,175.917 38.667 C 176.054 38.667,176.167 38.554,176.167 38.417 C 176.167 38.261,176.324 38.167,176.583 38.167 C 176.843 38.167,177.000 38.072,177.000 37.917 C 177.000 37.779,177.112 37.667,177.250 37.667 C 177.387 37.667,177.500 37.592,177.500 37.500 C 177.500 37.408,177.688 37.333,177.917 37.333 C 178.176 37.333,178.333 37.239,178.333 37.083 C 178.333 36.891,178.546 36.833,179.250 36.833 C 179.954 36.833,180.167 36.775,180.167 36.583 C 180.167 36.387,180.398 36.333,181.250 36.333 C 182.102 36.333,182.333 36.387,182.333 36.583 C 182.333 36.775,182.546 36.833,183.250 36.833 C 183.954 36.833,184.167 36.891,184.167 37.083 C 184.167 37.239,184.324 37.333,184.583 37.333 C 184.813 37.333,185.000 37.408,185.000 37.500 C 185.000 37.592,185.225 37.667,185.500 37.667 C 185.775 37.667,186.000 37.747,186.000 37.846 C 186.000 38.079,186.921 39.000,187.154 39.000 C 187.253 39.000,187.333 39.074,187.333 39.165 C 187.333 39.441,187.891 40.000,188.167 40.000 C 188.442 40.000,189.000 39.441,189.000 39.165 C 189.000 39.074,189.112 39.000,189.250 39.000 C 189.387 39.000,189.500 38.925,189.500 38.833 C 189.500 38.742,189.612 38.667,189.750 38.667 C 189.887 38.667,190.000 38.554,190.000 38.417 C 190.000 38.261,190.157 38.167,190.417 38.167 C 190.676 38.167,190.833 38.072,190.833 37.917 C 190.833 37.779,190.914 37.667,191.012 37.667 C 191.243 37.667,191.667 37.243,191.667 37.012 C 191.667 36.914,191.779 36.833,191.917 36.833 C 192.054 36.833,192.167 36.721,192.167 36.583 C 192.167 36.446,192.279 36.333,192.417 36.333 C 192.597 36.333,192.667 36.148,192.667 35.667 C 192.667 35.185,192.597 35.000,192.417 35.000 C 192.279 35.000,192.167 34.925,192.167 34.833 C 192.167 34.742,192.054 34.667,191.917 34.667 C 191.779 34.667,191.667 34.550,191.667 34.407 C 191.667 34.264,191.592 34.193,191.500 34.250 C 191.408 34.307,191.333 34.199,191.333 34.010 C 191.333 33.816,191.225 33.667,191.083 33.667 C 190.946 33.667,190.833 33.592,190.833 33.500 C 190.833 33.408,190.721 33.333,190.583 33.333 C 190.446 33.333,190.333 33.221,190.333 33.083 C 190.333 32.928,190.176 32.833,189.917 32.833 C 189.657 32.833,189.500 32.739,189.500 32.583 C 189.500 32.446,189.387 32.333,189.250 32.333 C 189.112 32.333,189.000 32.268,189.000 32.188 C 189.000 32.108,188.700 31.995,188.333 31.936 C 187.967 31.877,187.667 31.755,187.667 31.665 C 187.667 31.574,187.479 31.500,187.250 31.500 C 186.991 31.500,186.833 31.406,186.833 31.250 C 186.833 31.059,186.622 31.000,185.934 31.000 C 185.323 31.000,185.007 30.926,184.947 30.769 C 184.812 30.418,177.500 30.406,177.500 30.758 M258.333 30.758 C 258.333 30.940,258.107 31.000,257.417 31.000 C 256.713 31.000,256.500 31.058,256.500 31.250 C 256.500 31.426,256.323 31.500,255.905 31.500 C 255.577 31.500,255.197 31.613,255.060 31.750 C 254.922 31.887,254.665 32.000,254.488 32.000 C 254.311 32.000,254.167 32.075,254.167 32.167 C 254.167 32.258,253.979 32.333,253.750 32.333 C 253.491 32.333,253.333 32.428,253.333 32.583 C 253.333 32.721,253.221 32.833,253.083 32.833 C 252.946 32.833,252.852 32.927,252.875 33.042 C 252.898 33.159,252.716 33.273,252.458 33.303 C 252.206 33.332,252.000 33.425,252.000 33.511 C 252.000 33.597,251.883 33.667,251.740 33.667 C 251.597 33.667,251.527 33.742,251.584 33.835 C 251.641 33.927,251.571 34.047,251.427 34.102 C 251.284 34.157,251.167 34.307,251.167 34.434 C 251.167 34.562,251.054 34.667,250.917 34.667 C 250.779 34.667,250.667 34.742,250.667 34.833 C 250.667 34.925,250.554 35.000,250.417 35.000 C 250.279 35.000,250.167 35.079,250.167 35.177 C 250.167 35.274,250.253 35.299,250.359 35.234 C 250.478 35.160,250.506 35.188,250.433 35.308 C 250.367 35.413,250.206 35.500,250.073 35.500 C 249.941 35.500,249.833 35.612,249.833 35.750 C 249.833 35.887,249.759 36.000,249.669 36.000 C 249.343 36.000,248.833 36.582,248.833 36.954 C 248.833 37.163,248.758 37.333,248.667 37.333 C 248.575 37.333,248.500 37.521,248.500 37.750 C 248.500 38.009,248.406 38.167,248.250 38.167 C 248.083 38.167,248.000 38.333,248.000 38.667 C 248.000 38.978,247.921 39.151,247.792 39.125 C 247.674 39.102,247.560 39.284,247.531 39.542 C 247.502 39.794,247.408 40.000,247.322 40.000 C 247.237 40.000,247.167 40.487,247.167 41.083 C 247.167 41.935,247.113 42.167,246.917 42.167 C 246.704 42.167,246.667 42.602,246.667 45.083 C 246.667 47.565,246.704 48.000,246.917 48.000 C 247.158 48.000,247.260 48.715,247.173 49.792 C 247.156 49.998,247.223 50.167,247.321 50.167 C 247.420 50.167,247.500 50.357,247.500 50.589 C 247.500 50.821,247.612 51.054,247.750 51.106 C 247.887 51.159,248.000 51.382,248.000 51.601 C 248.000 51.845,248.097 52.000,248.250 52.000 C 248.406 52.000,248.500 52.157,248.500 52.417 C 248.500 52.646,248.575 52.833,248.667 52.833 C 248.758 52.833,248.833 53.004,248.833 53.213 C 248.833 53.585,249.343 54.167,249.669 54.167 C 249.759 54.167,249.833 54.279,249.833 54.417 C 249.833 54.554,249.943 54.667,250.078 54.667 C 250.227 54.667,250.285 54.764,250.227 54.917 C 250.166 55.075,250.229 55.167,250.399 55.167 C 250.546 55.167,250.667 55.242,250.667 55.333 C 250.667 55.425,250.779 55.500,250.917 55.500 C 251.054 55.500,251.167 55.607,251.167 55.739 C 251.167 55.870,251.327 56.028,251.522 56.090 C 251.801 56.179,251.828 56.234,251.647 56.349 C 251.464 56.465,251.477 56.495,251.708 56.497 C 251.869 56.499,252.000 56.575,252.000 56.667 C 252.000 56.758,252.112 56.833,252.250 56.833 C 252.387 56.833,252.500 56.946,252.500 57.083 C 252.500 57.239,252.657 57.333,252.917 57.333 C 253.176 57.333,253.333 57.428,253.333 57.583 C 253.333 57.737,253.489 57.833,253.736 57.833 C 253.958 57.833,254.168 57.920,254.203 58.026 C 254.239 58.133,254.451 58.247,254.675 58.281 C 254.900 58.315,255.108 58.416,255.139 58.505 C 255.169 58.594,255.488 58.667,255.847 58.667 C 256.316 58.667,256.500 58.737,256.500 58.917 C 256.500 59.096,256.684 59.167,257.153 59.167 C 257.527 59.167,257.835 59.256,257.875 59.375 C 257.990 59.722,265.833 59.772,265.833 59.425 C 265.833 59.223,266.033 59.167,266.750 59.167 C 267.454 59.167,267.667 59.109,267.667 58.917 C 267.667 58.761,267.824 58.667,268.083 58.667 C 268.313 58.667,268.500 58.592,268.500 58.500 C 268.500 58.408,268.720 58.333,268.988 58.333 C 269.257 58.333,269.589 58.221,269.726 58.083 C 269.864 57.946,270.057 57.833,270.155 57.833 C 270.253 57.833,270.333 57.721,270.333 57.583 C 270.333 57.428,270.491 57.333,270.750 57.333 C 271.009 57.333,271.167 57.239,271.167 57.083 C 271.167 56.946,271.279 56.833,271.417 56.833 C 271.554 56.833,271.667 56.758,271.667 56.667 C 271.667 56.575,271.779 56.500,271.917 56.500 C 272.054 56.500,272.167 56.387,272.167 56.250 C 272.167 56.112,272.242 56.000,272.333 56.000 C 272.425 56.000,272.500 55.887,272.500 55.750 C 272.500 55.612,272.612 55.500,272.750 55.500 C 272.887 55.500,273.000 55.425,273.000 55.333 C 273.000 55.242,273.112 55.167,273.250 55.167 C 273.431 55.167,273.500 54.981,273.500 54.500 C 273.500 54.019,273.431 53.833,273.250 53.833 C 273.112 53.833,273.000 53.721,273.000 53.583 C 273.000 53.446,272.930 53.333,272.844 53.333 C 272.758 53.333,272.273 52.912,271.766 52.397 C 271.163 51.784,270.756 51.494,270.589 51.558 C 270.431 51.619,270.333 51.563,270.333 51.411 C 270.333 51.277,270.221 51.167,270.083 51.167 C 269.946 51.167,269.833 51.092,269.833 51.000 C 269.833 50.761,269.206 50.167,268.954 50.167 C 268.715 50.167,268.167 50.748,268.167 51.002 C 268.167 51.093,268.054 51.167,267.917 51.167 C 267.779 51.167,267.667 51.279,267.667 51.417 C 267.667 51.554,267.610 51.649,267.542 51.628 C 267.348 51.568,266.673 52.209,266.768 52.363 C 266.815 52.438,266.632 52.500,266.361 52.500 C 266.085 52.500,265.828 52.606,265.776 52.742 C 265.723 52.880,265.536 52.956,265.342 52.918 C 265.125 52.876,265.000 52.940,265.000 53.093 C 265.000 53.273,264.771 53.333,264.083 53.333 C 263.380 53.333,263.167 53.391,263.167 53.583 C 263.167 53.780,262.935 53.833,262.083 53.833 C 261.231 53.833,261.000 53.780,261.000 53.583 C 261.000 53.391,260.787 53.333,260.083 53.333 C 259.422 53.333,259.167 53.270,259.167 53.107 C 259.167 52.967,258.992 52.888,258.708 52.899 C 258.424 52.910,258.266 52.838,258.292 52.708 C 258.315 52.594,258.229 52.500,258.101 52.500 C 257.973 52.500,257.826 52.387,257.773 52.250 C 257.720 52.112,257.525 52.000,257.339 52.000 C 257.152 52.000,257.000 51.925,257.000 51.833 C 257.000 51.742,256.887 51.667,256.750 51.667 C 256.612 51.667,256.500 51.554,256.500 51.417 C 256.500 51.279,256.387 51.167,256.250 51.167 C 256.112 51.167,256.000 51.054,256.000 50.917 C 256.000 50.779,255.887 50.667,255.750 50.667 C 255.594 50.667,255.500 50.509,255.500 50.250 C 255.500 50.021,255.425 49.833,255.333 49.833 C 255.242 49.833,255.167 49.721,255.167 49.583 C 255.167 49.446,255.054 49.333,254.917 49.333 C 254.736 49.333,254.667 49.148,254.667 48.667 C 254.667 48.185,254.597 48.000,254.417 48.000 C 254.237 48.000,254.167 47.816,254.167 47.347 C 254.167 46.988,254.096 46.669,254.010 46.639 C 253.774 46.555,253.741 43.614,253.975 43.536 C 254.081 43.501,254.167 43.178,254.167 42.819 C 254.167 42.350,254.237 42.167,254.417 42.167 C 254.597 42.167,254.667 41.981,254.667 41.500 C 254.667 41.019,254.736 40.833,254.917 40.833 C 255.054 40.833,255.167 40.721,255.167 40.583 C 255.167 40.446,255.242 40.333,255.333 40.333 C 255.425 40.333,255.500 40.146,255.500 39.917 C 255.500 39.657,255.594 39.500,255.750 39.500 C 255.887 39.500,256.000 39.387,256.000 39.250 C 256.000 39.112,256.121 39.000,256.268 39.000 C 256.433 39.000,256.500 38.908,256.443 38.758 C 256.381 38.598,256.430 38.548,256.590 38.609 C 256.723 38.660,256.876 38.581,256.933 38.434 C 256.990 38.287,257.180 38.167,257.356 38.167 C 257.533 38.167,257.720 38.054,257.773 37.917 C 257.826 37.779,257.973 37.667,258.101 37.667 C 258.229 37.667,258.333 37.592,258.333 37.500 C 258.333 37.408,258.521 37.333,258.750 37.333 C 259.009 37.333,259.167 37.239,259.167 37.083 C 259.167 36.891,259.380 36.833,260.083 36.833 C 260.787 36.833,261.000 36.775,261.000 36.583 C 261.000 36.387,261.231 36.333,262.083 36.333 C 262.935 36.333,263.167 36.387,263.167 36.583 C 263.167 36.775,263.380 36.833,264.083 36.833 C 264.787 36.833,265.000 36.891,265.000 37.083 C 265.000 37.239,265.157 37.333,265.417 37.333 C 265.646 37.333,265.833 37.408,265.833 37.500 C 265.833 37.592,266.058 37.667,266.333 37.667 C 266.608 37.667,266.815 37.728,266.792 37.802 C 266.737 37.980,267.755 39.000,267.987 39.000 C 268.086 39.000,268.167 39.074,268.167 39.165 C 268.167 39.441,268.724 40.000,269.000 40.000 C 269.276 40.000,269.833 39.441,269.833 39.165 C 269.833 39.074,269.918 39.000,270.023 39.000 C 270.127 39.000,270.386 38.813,270.598 38.583 C 270.810 38.354,271.074 38.167,271.185 38.167 C 271.295 38.167,271.670 37.867,272.019 37.500 C 272.368 37.133,272.731 36.833,272.827 36.833 C 272.922 36.833,273.000 36.721,273.000 36.583 C 273.000 36.446,273.112 36.333,273.250 36.333 C 273.431 36.333,273.500 36.148,273.500 35.667 C 273.500 35.185,273.431 35.000,273.250 35.000 C 273.112 35.000,273.000 34.925,273.000 34.833 C 273.000 34.742,272.887 34.667,272.750 34.667 C 272.612 34.667,272.500 34.554,272.500 34.417 C 272.500 34.279,272.425 34.167,272.333 34.167 C 272.242 34.167,272.167 34.054,272.167 33.917 C 272.167 33.779,272.054 33.667,271.917 33.667 C 271.779 33.667,271.667 33.592,271.667 33.500 C 271.667 33.408,271.554 33.333,271.417 33.333 C 271.279 33.333,271.167 33.221,271.167 33.083 C 271.167 32.928,271.009 32.833,270.750 32.833 C 270.491 32.833,270.333 32.739,270.333 32.583 C 270.333 32.446,270.221 32.333,270.083 32.333 C 269.946 32.333,269.833 32.268,269.833 32.188 C 269.833 32.108,269.533 31.995,269.167 31.936 C 268.800 31.877,268.500 31.755,268.500 31.665 C 268.500 31.574,268.313 31.500,268.083 31.500 C 267.824 31.500,267.667 31.406,267.667 31.250 C 267.667 31.059,267.456 31.000,266.768 31.000 C 266.156 31.000,265.841 30.926,265.781 30.769 C 265.645 30.418,258.333 30.406,258.333 30.758 M90.333 37.500 C 90.333 37.592,89.958 37.667,89.500 37.667 C 88.870 37.667,88.667 37.728,88.667 37.917 C 88.667 38.097,88.481 38.167,88.000 38.167 C 87.519 38.167,87.333 38.236,87.333 38.417 C 87.333 38.554,87.229 38.667,87.101 38.667 C 86.973 38.667,86.828 38.773,86.778 38.903 C 86.588 39.399,86.086 39.075,86.000 38.402 L 85.917 37.750 82.583 37.750 L 79.250 37.750 79.201 47.917 C 79.174 53.508,79.197 58.327,79.250 58.625 L 79.348 59.167 82.674 59.167 L 86.000 59.167 86.000 53.750 C 86.000 50.250,86.059 48.333,86.167 48.333 C 86.262 48.333,86.333 47.835,86.333 47.172 C 86.333 46.208,86.376 46.027,86.583 46.106 C 86.737 46.165,86.833 46.106,86.833 45.952 C 86.833 45.815,86.946 45.659,87.083 45.606 C 87.221 45.554,87.333 45.358,87.333 45.172 C 87.333 44.986,87.408 44.833,87.500 44.833 C 87.592 44.833,87.667 44.721,87.667 44.583 C 87.667 44.417,87.833 44.333,88.167 44.333 C 88.442 44.333,88.667 44.258,88.667 44.167 C 88.667 44.075,88.854 44.000,89.083 44.000 C 89.343 44.000,89.500 43.906,89.500 43.750 C 89.500 43.544,89.806 43.500,91.250 43.500 L 93.000 43.500 93.000 40.417 L 93.000 37.333 91.667 37.333 C 90.889 37.333,90.333 37.403,90.333 37.500 M104.167 37.500 C 104.167 37.594,103.694 37.667,103.083 37.667 C 102.231 37.667,102.000 37.720,102.000 37.917 C 102.000 38.097,101.815 38.167,101.333 38.167 C 100.852 38.167,100.667 38.236,100.667 38.417 C 100.667 38.572,100.509 38.667,100.250 38.667 C 99.995 38.667,99.833 38.761,99.833 38.911 C 99.833 39.061,99.736 39.119,99.583 39.060 C 99.425 39.000,99.333 39.063,99.333 39.232 C 99.333 39.407,99.188 39.500,98.917 39.500 C 98.657 39.500,98.500 39.594,98.500 39.750 C 98.500 39.887,98.388 40.000,98.250 40.000 C 98.112 40.000,98.000 40.117,98.000 40.260 C 98.000 40.403,97.938 40.482,97.863 40.435 C 97.710 40.340,97.167 40.912,97.167 41.169 C 97.167 41.259,97.054 41.333,96.917 41.333 C 96.761 41.333,96.667 41.491,96.667 41.750 C 96.667 42.009,96.572 42.167,96.417 42.167 C 96.279 42.167,96.167 42.279,96.167 42.417 C 96.167 42.554,96.092 42.667,96.000 42.667 C 95.908 42.667,95.833 42.854,95.833 43.083 C 95.833 43.343,95.739 43.500,95.583 43.500 C 95.403 43.500,95.333 43.685,95.333 44.167 C 95.333 44.648,95.264 44.833,95.083 44.833 C 94.891 44.833,94.833 45.046,94.833 45.750 C 94.833 46.254,94.758 46.667,94.667 46.667 C 94.566 46.667,94.500 47.361,94.500 48.417 C 94.500 49.472,94.566 50.167,94.667 50.167 C 94.758 50.167,94.833 50.579,94.833 51.083 C 94.833 51.787,94.891 52.000,95.083 52.000 C 95.264 52.000,95.333 52.185,95.333 52.667 C 95.333 53.148,95.403 53.333,95.583 53.333 C 95.739 53.333,95.833 53.491,95.833 53.750 C 95.833 53.979,95.908 54.167,96.000 54.167 C 96.092 54.167,96.167 54.279,96.167 54.417 C 96.167 54.554,96.279 54.667,96.417 54.667 C 96.572 54.667,96.667 54.824,96.667 55.083 C 96.667 55.343,96.761 55.500,96.917 55.500 C 97.054 55.500,97.167 55.581,97.167 55.679 C 97.167 55.994,98.128 56.833,98.487 56.833 C 98.684 56.833,98.833 56.941,98.833 57.083 C 98.833 57.221,98.946 57.333,99.083 57.333 C 99.221 57.333,99.333 57.446,99.333 57.583 C 99.333 57.740,99.491 57.833,99.755 57.833 C 99.987 57.833,100.222 57.950,100.277 58.093 C 100.332 58.236,100.477 58.314,100.600 58.267 C 100.723 58.219,100.933 58.290,101.067 58.424 C 101.200 58.557,101.577 58.667,101.905 58.667 C 102.323 58.667,102.500 58.741,102.500 58.917 C 102.500 59.113,102.730 59.167,103.566 59.167 C 104.359 59.167,104.656 59.231,104.727 59.417 C 104.805 59.621,105.218 59.667,106.995 59.667 C 108.814 59.667,109.167 59.626,109.167 59.417 C 109.167 59.220,109.398 59.167,110.250 59.167 C 111.102 59.167,111.333 59.113,111.333 58.917 C 111.333 58.741,111.511 58.667,111.929 58.667 C 112.256 58.667,112.633 58.557,112.767 58.424 C 112.900 58.290,113.119 58.223,113.253 58.274 C 113.390 58.327,113.542 58.250,113.600 58.101 C 113.656 57.954,113.882 57.833,114.101 57.833 C 114.345 57.833,114.500 57.736,114.500 57.583 C 114.500 57.446,114.612 57.333,114.750 57.333 C 114.888 57.333,115.000 57.253,115.000 57.155 C 115.000 56.924,115.424 56.500,115.655 56.500 C 115.753 56.500,115.833 56.396,115.833 56.268 C 115.833 56.140,115.946 55.992,116.083 55.940 C 116.221 55.887,116.333 55.727,116.333 55.583 C 116.333 55.440,116.221 55.280,116.083 55.227 C 115.946 55.174,115.833 55.027,115.833 54.899 C 115.833 54.771,115.734 54.667,115.611 54.667 C 115.489 54.667,115.289 54.479,115.167 54.250 C 115.044 54.021,114.844 53.833,114.722 53.833 C 114.600 53.833,114.500 53.721,114.500 53.583 C 114.500 53.446,114.388 53.333,114.250 53.333 C 114.112 53.333,114.000 53.216,114.000 53.073 C 114.000 52.931,113.925 52.860,113.833 52.917 C 113.742 52.973,113.667 52.903,113.667 52.760 C 113.667 52.617,113.554 52.500,113.417 52.500 C 113.279 52.500,113.167 52.387,113.167 52.250 C 113.167 51.841,111.651 51.910,111.287 52.335 C 111.129 52.520,111.000 52.746,111.000 52.838 C 111.000 52.931,110.809 52.972,110.574 52.929 C 110.301 52.880,110.116 52.938,110.057 53.093 C 109.998 53.245,109.727 53.333,109.316 53.333 C 108.850 53.333,108.667 53.404,108.667 53.583 C 108.667 53.788,108.380 53.833,107.083 53.833 C 105.787 53.833,105.500 53.788,105.500 53.583 C 105.500 53.403,105.315 53.333,104.833 53.333 C 104.332 53.333,104.167 53.267,104.167 53.066 C 104.167 52.898,104.075 52.833,103.921 52.892 C 103.787 52.943,103.567 52.877,103.433 52.743 C 103.300 52.609,103.110 52.500,103.012 52.500 C 102.914 52.500,102.833 52.387,102.833 52.250 C 102.833 52.112,102.758 52.000,102.667 52.000 C 102.575 52.000,102.500 51.854,102.500 51.675 C 102.500 51.496,102.398 51.290,102.274 51.217 C 102.150 51.143,102.011 50.877,101.964 50.625 L 101.880 50.167 109.773 50.167 L 117.667 50.167 117.667 48.167 C 117.667 46.500,117.625 46.167,117.417 46.167 C 117.229 46.167,117.167 45.965,117.167 45.351 C 117.167 44.780,117.092 44.507,116.917 44.440 C 116.760 44.380,116.667 44.125,116.667 43.755 C 116.667 43.432,116.592 43.167,116.500 43.167 C 116.408 43.167,116.333 42.942,116.333 42.667 C 116.333 42.333,116.250 42.167,116.083 42.167 C 115.946 42.167,115.833 42.054,115.833 41.917 C 115.833 41.779,115.741 41.685,115.629 41.708 C 115.517 41.731,115.397 41.569,115.364 41.347 C 115.285 40.825,114.458 40.000,114.013 40.000 C 113.816 40.000,113.667 39.892,113.667 39.750 C 113.667 39.612,113.554 39.500,113.417 39.500 C 113.279 39.500,113.167 39.390,113.167 39.255 C 113.167 39.106,113.069 39.048,112.917 39.106 C 112.758 39.167,112.667 39.104,112.667 38.934 C 112.667 38.760,112.522 38.667,112.250 38.667 C 111.991 38.667,111.833 38.572,111.833 38.417 C 111.833 38.236,111.648 38.167,111.167 38.167 C 110.685 38.167,110.500 38.097,110.500 37.917 C 110.500 37.720,110.269 37.667,109.417 37.667 C 108.806 37.667,108.333 37.594,108.333 37.500 C 108.333 37.408,108.254 37.333,108.157 37.333 C 108.060 37.333,108.033 37.427,108.098 37.542 C 108.192 37.708,108.171 37.708,107.991 37.542 C 107.713 37.284,104.167 37.245,104.167 37.500 M148.833 37.500 C 148.833 37.594,148.361 37.667,147.750 37.667 C 146.898 37.667,146.667 37.720,146.667 37.917 C 146.667 38.097,146.481 38.167,146.000 38.167 C 145.519 38.167,145.333 38.236,145.333 38.417 C 145.333 38.597,145.148 38.667,144.667 38.667 C 144.181 38.667,144.000 38.736,144.000 38.920 C 144.000 39.099,143.878 39.151,143.583 39.098 C 143.305 39.047,143.167 39.098,143.167 39.250 C 143.167 39.375,142.960 39.502,142.708 39.531 C 142.159 39.594,141.870 41.333,142.408 41.333 C 142.576 41.333,142.667 41.486,142.667 41.768 C 142.667 42.063,142.738 42.175,142.891 42.116 C 143.051 42.055,143.093 42.144,143.038 42.430 C 142.988 42.695,143.052 42.864,143.231 42.932 C 143.393 42.995,143.500 43.228,143.500 43.518 C 143.500 43.835,143.585 44.000,143.750 44.000 C 143.906 44.000,144.000 44.157,144.000 44.417 C 144.000 44.792,144.067 44.833,144.667 44.833 C 145.148 44.833,145.333 44.764,145.333 44.583 C 145.333 44.428,145.491 44.333,145.750 44.333 C 145.979 44.333,146.167 44.258,146.167 44.167 C 146.167 44.075,146.357 44.000,146.589 44.000 C 146.821 44.000,147.054 43.887,147.106 43.750 C 147.174 43.575,147.447 43.500,148.018 43.500 C 148.632 43.500,148.833 43.438,148.833 43.250 C 148.833 43.043,149.148 43.000,150.667 43.000 C 152.208 43.000,152.500 43.041,152.500 43.257 C 152.500 43.399,152.594 43.502,152.708 43.488 C 153.147 43.431,153.333 43.509,153.333 43.750 C 153.333 43.912,153.496 44.000,153.798 44.000 C 154.159 44.000,154.269 44.083,154.290 44.373 C 154.306 44.577,154.397 44.771,154.493 44.803 C 154.588 44.835,154.667 45.042,154.667 45.264 C 154.667 45.511,154.763 45.667,154.917 45.667 C 155.054 45.667,155.167 45.779,155.167 45.917 C 155.167 46.132,154.594 46.167,151.008 46.167 C 147.569 46.167,146.827 46.208,146.716 46.406 C 146.635 46.551,146.254 46.666,145.749 46.698 C 145.193 46.733,144.930 46.819,144.958 46.958 C 144.984 47.088,144.811 47.167,144.500 47.167 C 144.225 47.167,144.000 47.242,144.000 47.333 C 144.000 47.425,143.887 47.500,143.750 47.500 C 143.612 47.500,143.500 47.572,143.500 47.661 C 143.500 47.879,142.555 48.833,142.339 48.833 C 142.244 48.833,142.167 48.914,142.167 49.012 C 142.167 49.110,142.050 49.307,141.907 49.450 C 141.764 49.593,141.685 49.806,141.730 49.924 C 141.775 50.042,141.705 50.180,141.573 50.231 C 141.200 50.374,141.221 55.167,141.595 55.167 C 141.780 55.167,141.825 55.263,141.750 55.501 C 141.679 55.723,141.731 55.869,141.905 55.935 C 142.049 55.991,142.167 56.215,142.167 56.434 C 142.167 56.678,142.264 56.833,142.417 56.833 C 142.554 56.833,142.667 56.946,142.667 57.083 C 142.667 57.221,142.779 57.333,142.917 57.333 C 143.054 57.333,143.167 57.446,143.167 57.583 C 143.167 57.739,143.324 57.833,143.583 57.833 C 143.843 57.833,144.000 57.928,144.000 58.083 C 144.000 58.221,144.112 58.333,144.250 58.333 C 144.387 58.333,144.500 58.408,144.500 58.500 C 144.500 58.592,144.688 58.667,144.917 58.667 C 145.176 58.667,145.333 58.761,145.333 58.917 C 145.333 59.113,145.563 59.167,146.399 59.167 C 147.192 59.167,147.489 59.231,147.560 59.417 C 147.638 59.619,148.023 59.667,149.578 59.667 C 151.175 59.667,151.500 59.624,151.500 59.417 C 151.500 59.225,151.713 59.167,152.417 59.167 C 153.120 59.167,153.333 59.109,153.333 58.917 C 153.333 58.761,153.491 58.667,153.750 58.667 C 153.990 58.667,154.167 58.571,154.167 58.440 C 154.167 58.288,154.304 58.239,154.581 58.292 C 154.862 58.346,155.029 58.284,155.099 58.102 C 155.276 57.641,155.478 57.807,155.532 58.458 L 155.583 59.083 158.708 59.129 L 161.833 59.174 161.833 51.337 C 161.833 44.482,161.802 43.500,161.583 43.500 C 161.403 43.500,161.333 43.315,161.333 42.833 C 161.333 42.467,161.258 42.167,161.167 42.167 C 161.075 42.167,161.000 41.979,161.000 41.750 C 161.000 41.491,160.906 41.333,160.750 41.333 C 160.612 41.333,160.500 41.221,160.500 41.083 C 160.500 40.946,160.387 40.833,160.250 40.833 C 160.111 40.833,160.000 40.685,160.000 40.500 C 160.000 40.100,159.439 39.500,159.066 39.500 C 158.918 39.500,158.650 39.313,158.470 39.083 C 158.281 38.843,157.971 38.667,157.738 38.667 C 157.489 38.667,157.333 38.570,157.333 38.417 C 157.333 38.236,157.148 38.167,156.667 38.167 C 156.185 38.167,156.000 38.097,156.000 37.917 C 156.000 37.720,155.769 37.667,154.917 37.667 C 154.306 37.667,153.833 37.594,153.833 37.500 C 153.833 37.396,152.889 37.333,151.333 37.333 C 149.778 37.333,148.833 37.396,148.833 37.500 M202.500 37.500 C 202.500 37.594,202.034 37.667,201.434 37.667 C 200.641 37.667,200.344 37.731,200.273 37.917 C 200.210 38.082,199.949 38.167,199.505 38.167 C 199.019 38.167,198.833 38.236,198.833 38.417 C 198.833 38.596,198.650 38.667,198.184 38.667 C 197.771 38.667,197.502 38.754,197.443 38.909 C 197.390 39.046,197.203 39.122,197.008 39.085 C 196.791 39.043,196.667 39.107,196.667 39.260 C 196.667 39.405,196.502 39.500,196.250 39.500 C 195.856 39.500,195.833 39.550,195.833 40.417 C 195.833 40.921,195.908 41.333,196.000 41.333 C 196.092 41.333,196.167 41.521,196.167 41.750 C 196.167 41.979,196.247 42.167,196.345 42.167 C 196.443 42.167,196.636 42.279,196.774 42.417 C 196.911 42.554,196.943 42.667,196.845 42.667 C 196.747 42.667,196.667 42.742,196.667 42.833 C 196.667 42.925,196.779 43.000,196.917 43.000 C 197.083 43.000,197.167 43.167,197.167 43.500 C 197.167 43.775,197.242 44.000,197.333 44.000 C 197.425 44.000,197.500 44.188,197.500 44.417 C 197.500 44.792,197.567 44.833,198.167 44.833 C 198.648 44.833,198.833 44.764,198.833 44.583 C 198.833 44.417,199.000 44.333,199.333 44.333 C 199.608 44.333,199.833 44.258,199.833 44.167 C 199.833 44.075,200.021 44.000,200.250 44.000 C 200.509 44.000,200.667 43.906,200.667 43.750 C 200.667 43.558,200.880 43.500,201.583 43.500 C 202.287 43.500,202.500 43.442,202.500 43.250 C 202.500 43.044,202.806 43.000,204.250 43.000 C 205.694 43.000,206.000 43.044,206.000 43.250 C 206.000 43.417,206.167 43.500,206.500 43.500 C 206.833 43.500,207.000 43.583,207.000 43.750 C 207.000 43.906,207.157 44.000,207.417 44.000 C 207.750 44.000,207.833 44.083,207.833 44.417 C 207.833 44.676,207.928 44.833,208.083 44.833 C 208.239 44.833,208.333 44.991,208.333 45.250 C 208.333 45.479,208.408 45.667,208.500 45.667 C 208.592 45.667,208.667 45.779,208.667 45.917 C 208.667 46.132,208.081 46.167,204.396 46.167 C 200.550 46.167,200.147 46.192,200.341 46.426 C 200.460 46.569,200.487 46.672,200.403 46.656 C 199.724 46.527,198.500 46.695,198.500 46.917 C 198.500 47.074,198.341 47.167,198.071 47.167 C 197.632 47.167,197.167 47.503,197.167 47.821 C 197.167 47.920,197.054 48.000,196.917 48.000 C 196.779 48.000,196.667 48.112,196.667 48.250 C 196.667 48.387,196.586 48.500,196.488 48.500 C 196.257 48.500,195.833 48.924,195.833 49.155 C 195.833 49.253,195.721 49.333,195.583 49.333 C 195.431 49.333,195.333 49.489,195.333 49.732 C 195.333 49.952,195.221 50.174,195.083 50.227 C 194.878 50.306,194.833 50.737,194.833 52.667 C 194.833 54.596,194.878 55.027,195.083 55.106 C 195.221 55.159,195.333 55.382,195.333 55.601 C 195.333 55.845,195.431 56.000,195.583 56.000 C 195.739 56.000,195.833 56.157,195.833 56.417 C 195.833 56.646,195.908 56.833,196.000 56.833 C 196.092 56.833,196.167 56.946,196.167 57.083 C 196.167 57.221,196.279 57.333,196.417 57.333 C 196.554 57.333,196.667 57.446,196.667 57.583 C 196.667 57.736,196.822 57.833,197.066 57.833 C 197.285 57.833,197.509 57.951,197.564 58.094 C 197.619 58.237,197.740 58.308,197.832 58.251 C 197.924 58.194,198.000 58.264,198.000 58.407 C 198.000 58.570,198.149 58.667,198.399 58.667 C 198.618 58.667,198.841 58.779,198.894 58.917 C 198.965 59.104,199.264 59.167,200.078 59.167 C 200.935 59.167,201.167 59.220,201.167 59.417 C 201.167 59.805,204.918 59.784,205.136 59.394 C 205.248 59.193,205.511 59.127,206.144 59.141 C 206.798 59.156,207.000 59.102,207.000 58.914 C 207.000 58.761,207.160 58.667,207.417 58.667 C 207.646 58.667,207.833 58.592,207.833 58.500 C 207.833 58.408,208.021 58.333,208.250 58.333 C 208.509 58.333,208.667 58.239,208.667 58.083 C 208.667 57.946,208.779 57.833,208.917 57.833 C 209.097 57.833,209.167 58.019,209.167 58.500 L 209.167 59.167 212.250 59.167 L 215.333 59.167 215.333 51.333 C 215.333 46.222,215.275 43.500,215.167 43.500 C 215.075 43.500,215.000 43.200,215.000 42.833 C 215.000 42.352,214.931 42.167,214.750 42.167 C 214.594 42.167,214.500 42.009,214.500 41.750 C 214.500 41.491,214.406 41.333,214.250 41.333 C 214.112 41.333,214.000 41.221,214.000 41.083 C 214.000 40.946,213.925 40.833,213.833 40.833 C 213.742 40.833,213.667 40.681,213.667 40.495 C 213.667 40.309,213.554 40.113,213.417 40.060 C 213.279 40.008,213.167 39.860,213.167 39.732 C 213.167 39.596,212.995 39.500,212.750 39.500 C 212.521 39.500,212.333 39.425,212.333 39.333 C 212.333 39.242,212.221 39.167,212.083 39.167 C 211.946 39.167,211.833 39.054,211.833 38.917 C 211.833 38.761,211.676 38.667,211.417 38.667 C 211.157 38.667,211.000 38.572,211.000 38.417 C 211.000 38.237,210.817 38.167,210.351 38.167 C 209.928 38.167,209.669 38.080,209.606 37.917 C 209.535 37.730,209.236 37.667,208.422 37.667 C 207.807 37.667,207.333 37.594,207.333 37.500 C 207.333 37.397,206.417 37.333,204.917 37.333 C 203.417 37.333,202.500 37.397,202.500 37.500 M232.000 37.500 C 232.000 37.594,231.526 37.667,230.911 37.667 C 230.098 37.667,229.799 37.730,229.727 37.917 C 229.674 38.054,229.452 38.167,229.232 38.167 C 228.989 38.167,228.833 38.264,228.833 38.417 C 228.833 38.576,228.673 38.667,228.393 38.667 C 228.151 38.667,227.854 38.798,227.732 38.958 C 227.538 39.214,227.510 39.152,227.505 38.458 L 227.500 37.667 224.167 37.667 L 220.833 37.667 220.833 48.417 L 220.833 59.167 224.167 59.167 L 227.500 59.167 227.500 53.333 C 227.500 49.556,227.559 47.500,227.667 47.500 C 227.758 47.500,227.833 47.125,227.833 46.667 C 227.833 46.037,227.894 45.833,228.083 45.833 C 228.258 45.833,228.333 45.658,228.333 45.255 C 228.333 44.810,228.391 44.699,228.583 44.773 C 228.721 44.826,228.833 44.781,228.833 44.673 C 228.833 44.358,229.279 44.000,229.670 44.000 C 229.881 44.000,230.065 43.872,230.112 43.692 C 230.170 43.469,230.303 43.406,230.596 43.462 C 230.889 43.518,231.000 43.465,231.000 43.269 C 231.000 43.047,231.203 43.000,232.167 43.000 C 233.093 43.000,233.333 43.052,233.333 43.250 C 233.333 43.403,233.489 43.500,233.732 43.500 C 233.952 43.500,234.174 43.612,234.227 43.750 C 234.280 43.887,234.475 44.000,234.661 44.000 C 234.891 44.000,235.000 44.109,235.000 44.339 C 235.000 44.525,235.112 44.720,235.250 44.773 C 235.387 44.826,235.500 45.048,235.500 45.268 C 235.500 45.511,235.597 45.667,235.750 45.667 C 235.968 45.667,236.000 46.528,236.000 52.421 L 236.000 59.176 239.500 59.160 L 243.000 59.144 243.000 51.836 C 243.000 46.297,242.952 44.512,242.800 44.461 C 242.670 44.418,242.616 44.091,242.646 43.531 C 242.682 42.836,242.640 42.667,242.429 42.667 C 242.249 42.667,242.167 42.511,242.167 42.172 C 242.167 41.801,242.104 41.701,241.917 41.773 C 241.728 41.846,241.667 41.743,241.667 41.351 C 241.667 41.066,241.592 40.833,241.500 40.833 C 241.408 40.833,241.333 40.721,241.333 40.583 C 241.333 40.446,241.240 40.352,241.125 40.375 C 241.008 40.398,240.894 40.216,240.864 39.958 C 240.823 39.598,240.724 39.500,240.406 39.500 C 240.156 39.500,240.000 39.404,240.000 39.250 C 240.000 39.112,239.887 39.000,239.750 39.000 C 239.612 39.000,239.500 38.925,239.500 38.833 C 239.500 38.742,239.313 38.667,239.083 38.667 C 238.824 38.667,238.667 38.572,238.667 38.417 C 238.667 38.250,238.500 38.167,238.167 38.167 C 237.833 38.167,237.667 38.083,237.667 37.917 C 237.667 37.728,237.463 37.667,236.833 37.667 C 236.375 37.667,236.000 37.592,236.000 37.500 C 236.000 37.398,235.222 37.333,234.000 37.333 C 232.778 37.333,232.000 37.398,232.000 37.500 M284.167 37.515 C 284.167 37.599,283.714 37.667,283.161 37.667 C 282.422 37.667,282.131 37.733,282.060 37.917 C 282.006 38.059,281.757 38.167,281.482 38.167 C 281.165 38.167,281.000 38.252,281.000 38.417 C 281.000 38.569,280.845 38.667,280.601 38.667 C 280.382 38.667,280.156 38.787,280.100 38.934 C 280.042 39.084,279.890 39.160,279.753 39.108 C 279.619 39.056,279.400 39.123,279.267 39.257 C 279.133 39.391,278.904 39.500,278.757 39.500 C 278.610 39.500,278.446 39.612,278.394 39.750 C 278.341 39.887,278.225 40.000,278.137 40.000 C 277.921 40.000,277.500 40.432,277.500 40.655 C 277.500 40.753,277.387 40.833,277.250 40.833 C 277.112 40.833,277.000 40.938,277.000 41.066 C 277.000 41.193,276.887 41.341,276.750 41.394 C 276.612 41.446,276.500 41.642,276.500 41.828 C 276.500 42.014,276.417 42.167,276.316 42.167 C 276.214 42.167,276.174 42.279,276.227 42.417 C 276.292 42.587,276.218 42.667,275.995 42.667 C 275.760 42.667,275.667 42.780,275.667 43.066 C 275.667 43.285,275.550 43.509,275.406 43.564 C 275.222 43.635,275.170 43.812,275.227 44.176 C 275.281 44.522,275.231 44.716,275.070 44.778 C 274.906 44.841,274.833 45.144,274.833 45.768 C 274.833 46.456,274.775 46.667,274.583 46.667 C 274.377 46.667,274.333 46.972,274.333 48.417 C 274.333 49.861,274.377 50.167,274.583 50.167 C 274.775 50.167,274.833 50.378,274.833 51.069 C 274.833 51.605,274.912 51.998,275.026 52.037 C 275.132 52.072,275.212 52.345,275.204 52.643 C 275.194 52.972,275.283 53.222,275.428 53.277 C 275.559 53.328,275.667 53.548,275.667 53.768 C 275.667 54.011,275.764 54.167,275.917 54.167 C 276.054 54.167,276.167 54.247,276.167 54.345 C 276.167 54.443,276.276 54.633,276.410 54.767 C 276.543 54.900,276.610 55.120,276.558 55.255 C 276.500 55.408,276.565 55.500,276.732 55.500 C 276.879 55.500,277.000 55.612,277.000 55.750 C 277.000 55.887,277.112 56.000,277.250 56.000 C 277.387 56.000,277.500 56.080,277.500 56.179 C 277.500 56.409,277.924 56.833,278.155 56.833 C 278.253 56.833,278.333 56.946,278.333 57.083 C 278.333 57.236,278.489 57.333,278.732 57.333 C 278.952 57.333,279.174 57.446,279.227 57.583 C 279.280 57.721,279.513 57.833,279.745 57.833 C 280.021 57.833,280.167 57.926,280.167 58.101 C 280.167 58.268,280.259 58.334,280.412 58.275 C 280.547 58.223,280.766 58.290,280.900 58.424 C 281.034 58.557,281.336 58.667,281.571 58.667 C 281.841 58.667,282.000 58.759,282.000 58.917 C 282.000 59.113,282.230 59.167,283.066 59.167 C 283.821 59.167,284.157 59.234,284.220 59.398 C 284.357 59.756,288.197 59.779,288.552 59.424 C 288.728 59.249,289.131 59.167,289.821 59.167 C 290.610 59.167,290.833 59.111,290.833 58.917 C 290.833 58.736,291.019 58.667,291.500 58.667 C 291.867 58.667,292.167 58.592,292.167 58.500 C 292.167 58.408,292.354 58.333,292.583 58.333 C 292.843 58.333,293.000 58.239,293.000 58.083 C 293.000 57.946,293.112 57.833,293.250 57.833 C 293.387 57.833,293.500 57.721,293.500 57.583 C 293.500 57.417,293.667 57.333,294.000 57.333 C 294.275 57.333,294.500 57.253,294.500 57.155 C 294.500 56.924,294.924 56.500,295.155 56.500 C 295.253 56.500,295.333 56.387,295.333 56.250 C 295.333 56.112,295.446 56.000,295.583 56.000 C 295.721 56.000,295.833 55.920,295.833 55.821 C 295.833 55.582,296.261 55.167,296.508 55.167 C 296.630 55.167,296.674 55.004,296.623 54.737 C 296.566 54.439,296.625 54.276,296.812 54.206 C 297.244 54.044,297.489 53.626,297.495 53.042 C 297.498 52.674,297.580 52.500,297.750 52.500 C 297.929 52.500,298.000 52.317,298.000 51.854 C 298.000 51.483,298.106 51.119,298.250 51.000 C 298.451 50.833,298.500 50.322,298.500 48.391 C 298.500 46.410,298.456 45.973,298.250 45.894 C 298.087 45.831,298.000 45.572,298.000 45.149 C 298.000 44.683,297.929 44.500,297.750 44.500 C 297.569 44.500,297.500 44.315,297.500 43.833 C 297.500 43.467,297.425 43.167,297.333 43.167 C 297.242 43.167,297.167 43.054,297.167 42.917 C 297.167 42.779,297.054 42.667,296.917 42.667 C 296.769 42.667,296.666 42.513,296.665 42.292 C 296.664 42.065,296.402 41.687,296.000 41.333 C 295.635 41.012,295.336 40.652,295.335 40.532 C 295.334 40.412,295.268 40.354,295.189 40.403 C 295.109 40.452,294.873 40.269,294.664 39.996 C 294.455 39.723,294.141 39.500,293.967 39.500 C 293.793 39.500,293.477 39.313,293.265 39.083 C 293.052 38.854,292.718 38.667,292.523 38.667 C 292.317 38.667,292.167 38.561,292.167 38.417 C 292.167 38.236,291.981 38.167,291.500 38.167 C 291.019 38.167,290.833 38.097,290.833 37.917 C 290.833 37.720,290.602 37.667,289.750 37.667 C 289.116 37.667,288.667 37.595,288.667 37.495 C 288.667 37.384,287.866 37.330,286.417 37.343 C 285.179 37.355,284.167 37.432,284.167 37.515 M337.750 37.500 C 337.693 37.592,337.164 37.667,336.573 37.667 C 335.730 37.667,335.500 37.720,335.500 37.917 C 335.500 38.097,335.315 38.167,334.833 38.167 C 334.352 38.167,334.167 38.236,334.167 38.417 C 334.167 38.572,334.009 38.667,333.750 38.667 C 333.495 38.667,333.333 38.761,333.333 38.911 C 333.333 39.061,333.236 39.119,333.083 39.060 C 332.925 39.000,332.833 39.063,332.833 39.232 C 332.833 39.407,332.688 39.500,332.417 39.500 C 332.157 39.500,332.000 39.594,332.000 39.750 C 332.000 39.887,331.887 40.000,331.750 40.000 C 331.612 40.000,331.500 40.117,331.500 40.260 C 331.500 40.403,331.438 40.482,331.363 40.435 C 331.210 40.340,330.667 40.912,330.667 41.169 C 330.667 41.259,330.554 41.333,330.417 41.333 C 330.261 41.333,330.167 41.491,330.167 41.750 C 330.167 42.009,330.072 42.167,329.917 42.167 C 329.779 42.167,329.667 42.247,329.667 42.345 C 329.667 42.443,329.550 42.641,329.407 42.783 C 329.264 42.926,329.187 43.146,329.235 43.271 C 329.285 43.401,329.217 43.500,329.078 43.500 C 328.904 43.500,328.833 43.692,328.833 44.167 C 328.833 44.648,328.764 44.833,328.583 44.833 C 328.394 44.833,328.333 45.038,328.333 45.679 C 328.333 46.208,328.240 46.617,328.083 46.774 C 327.801 47.056,327.776 47.468,327.986 48.374 C 328.071 48.739,328.069 48.959,327.982 48.906 C 327.710 48.737,327.829 49.805,328.114 50.090 C 328.316 50.292,328.383 50.601,328.352 51.186 C 328.317 51.834,328.362 52.000,328.571 52.000 C 328.766 52.000,328.833 52.171,328.833 52.667 C 328.833 53.142,328.904 53.333,329.078 53.333 C 329.217 53.333,329.285 53.432,329.235 53.562 C 329.187 53.688,329.264 53.907,329.407 54.050 C 329.550 54.193,329.667 54.390,329.667 54.488 C 329.667 54.586,329.779 54.667,329.917 54.667 C 330.072 54.667,330.167 54.824,330.167 55.083 C 330.167 55.343,330.261 55.500,330.417 55.500 C 330.554 55.500,330.667 55.612,330.667 55.750 C 330.667 55.887,330.742 56.000,330.833 56.000 C 330.925 56.000,331.000 56.112,331.000 56.250 C 331.000 56.387,331.112 56.500,331.250 56.500 C 331.387 56.500,331.500 56.575,331.500 56.667 C 331.500 56.758,331.688 56.833,331.917 56.833 C 332.176 56.833,332.333 56.928,332.333 57.083 C 332.333 57.221,332.446 57.333,332.583 57.333 C 332.721 57.333,332.833 57.446,332.833 57.583 C 332.833 57.736,332.989 57.833,333.232 57.833 C 333.452 57.833,333.677 57.954,333.734 58.101 C 333.791 58.250,333.943 58.327,334.080 58.274 C 334.214 58.223,334.433 58.290,334.567 58.424 C 334.700 58.557,335.077 58.667,335.405 58.667 C 335.823 58.667,336.000 58.741,336.000 58.917 C 336.000 59.113,336.230 59.167,337.066 59.167 C 337.859 59.167,338.156 59.231,338.227 59.417 C 338.305 59.620,338.693 59.666,340.286 59.664 C 342.164 59.662,342.815 59.540,342.620 59.227 C 342.571 59.148,343.049 59.108,343.682 59.139 C 344.644 59.185,344.833 59.151,344.833 58.930 C 344.833 58.734,345.003 58.667,345.500 58.667 C 345.867 58.667,346.167 58.592,346.167 58.500 C 346.167 58.408,346.357 58.333,346.589 58.333 C 346.821 58.333,347.054 58.221,347.106 58.083 C 347.159 57.946,347.382 57.833,347.601 57.833 C 347.845 57.833,348.000 57.736,348.000 57.583 C 348.000 57.446,348.113 57.333,348.250 57.333 C 348.387 57.333,348.500 57.253,348.500 57.155 C 348.500 56.924,348.924 56.500,349.155 56.500 C 349.253 56.500,349.333 56.387,349.333 56.250 C 349.333 56.112,349.411 56.000,349.505 56.000 C 349.970 56.000,349.822 55.449,349.185 54.812 C 348.808 54.436,348.500 54.061,348.500 53.980 C 348.500 53.900,348.387 53.833,348.250 53.833 C 348.113 53.833,348.000 53.721,348.000 53.583 C 348.000 53.446,347.887 53.333,347.750 53.333 C 347.613 53.333,347.500 53.216,347.500 53.073 C 347.500 52.931,347.425 52.860,347.333 52.917 C 347.242 52.973,347.167 52.903,347.167 52.760 C 347.167 52.617,347.054 52.500,346.917 52.500 C 346.779 52.500,346.667 52.387,346.667 52.250 C 346.667 52.058,346.454 52.000,345.750 52.000 C 345.046 52.000,344.833 52.058,344.833 52.250 C 344.833 52.387,344.767 52.500,344.686 52.500 C 344.605 52.500,344.493 52.669,344.436 52.875 C 344.377 53.091,344.280 53.179,344.208 53.083 C 344.005 52.812,343.665 52.811,343.561 53.082 C 343.498 53.246,343.240 53.333,342.816 53.333 C 342.350 53.333,342.167 53.404,342.167 53.583 C 342.167 53.788,341.880 53.833,340.583 53.833 C 339.287 53.833,339.000 53.788,339.000 53.583 C 339.000 53.403,338.815 53.333,338.333 53.333 C 337.832 53.333,337.667 53.267,337.667 53.066 C 337.667 52.898,337.575 52.833,337.421 52.892 C 337.287 52.943,337.067 52.877,336.933 52.743 C 336.800 52.609,336.610 52.500,336.512 52.500 C 336.414 52.500,336.333 52.387,336.333 52.250 C 336.333 52.112,336.264 52.000,336.178 52.000 C 336.093 52.000,335.999 51.831,335.970 51.625 C 335.940 51.417,335.805 51.257,335.667 51.266 C 335.491 51.278,335.417 51.116,335.417 50.725 L 335.417 50.167 343.292 50.167 L 351.167 50.167 351.167 48.245 C 351.167 46.690,351.119 46.305,350.917 46.227 C 350.743 46.160,350.667 45.889,350.667 45.333 C 350.667 44.778,350.591 44.507,350.417 44.440 C 350.260 44.380,350.167 44.125,350.167 43.755 C 350.167 43.432,350.092 43.167,350.000 43.167 C 349.908 43.167,349.833 42.977,349.833 42.745 C 349.833 42.513,349.721 42.280,349.583 42.227 C 349.446 42.174,349.333 42.029,349.333 41.904 C 349.333 41.771,349.230 41.717,349.083 41.773 C 348.899 41.844,348.833 41.751,348.833 41.422 C 348.833 40.883,348.013 40.000,347.513 40.000 C 347.316 40.000,347.167 39.892,347.167 39.750 C 347.167 39.612,347.054 39.500,346.917 39.500 C 346.779 39.500,346.667 39.383,346.667 39.240 C 346.667 39.097,346.591 39.027,346.499 39.084 C 346.407 39.141,346.286 39.071,346.231 38.927 C 346.176 38.784,345.960 38.667,345.750 38.667 C 345.540 38.667,345.326 38.554,345.273 38.417 C 345.214 38.262,344.960 38.167,344.606 38.167 C 344.253 38.167,343.999 38.072,343.940 37.917 C 343.868 37.730,343.569 37.667,342.755 37.667 C 342.141 37.667,341.667 37.594,341.667 37.500 C 341.667 37.399,340.920 37.333,339.760 37.333 C 338.668 37.333,337.809 37.405,337.750 37.500 M119.833 40.331 L 119.833 42.995 124.862 43.039 L 129.891 43.083 129.362 43.612 C 129.071 43.903,128.833 44.222,128.833 44.321 C 128.833 44.419,128.721 44.500,128.583 44.500 C 128.428 44.500,128.333 44.657,128.333 44.917 C 128.333 45.176,128.239 45.333,128.083 45.333 C 127.946 45.333,127.852 45.392,127.875 45.464 C 127.927 45.625,126.880 46.667,126.666 46.667 C 126.581 46.667,126.554 46.779,126.606 46.917 C 126.667 47.075,126.604 47.167,126.434 47.167 C 126.287 47.167,126.167 47.242,126.167 47.333 C 126.167 47.425,126.054 47.500,125.917 47.500 C 125.779 47.500,125.667 47.604,125.667 47.732 C 125.667 47.860,125.554 48.008,125.417 48.060 C 125.279 48.113,125.167 48.309,125.167 48.495 C 125.167 48.681,125.092 48.833,125.000 48.833 C 124.908 48.833,124.833 48.946,124.833 49.083 C 124.833 49.221,124.721 49.333,124.583 49.333 C 124.442 49.333,124.333 49.483,124.333 49.677 C 124.333 49.865,124.258 49.973,124.165 49.916 C 123.978 49.800,123.500 50.211,123.500 50.488 C 123.500 50.586,123.388 50.667,123.250 50.667 C 123.112 50.667,123.000 50.779,123.000 50.917 C 123.000 51.054,122.915 51.167,122.810 51.167 C 122.530 51.167,122.178 51.695,122.172 52.125 C 122.169 52.332,122.063 52.500,121.934 52.500 C 121.807 52.500,121.657 52.617,121.602 52.761 C 121.547 52.904,121.427 52.974,121.335 52.917 C 121.242 52.860,121.167 52.931,121.167 53.073 C 121.167 53.216,121.092 53.333,121.000 53.333 C 120.908 53.333,120.833 53.446,120.833 53.583 C 120.833 53.721,120.759 53.833,120.669 53.833 C 119.979 53.833,119.833 54.348,119.833 56.787 L 119.833 59.167 129.667 59.167 L 139.500 59.167 139.500 56.500 L 139.500 53.833 134.167 53.833 C 129.537 53.833,128.833 53.800,128.833 53.583 C 128.833 53.446,128.908 53.333,129.000 53.333 C 129.092 53.333,129.167 53.221,129.167 53.083 C 129.167 52.946,129.279 52.833,129.417 52.833 C 129.554 52.833,129.667 52.758,129.667 52.667 C 129.667 52.575,129.779 52.500,129.917 52.500 C 130.054 52.500,130.167 52.387,130.167 52.250 C 130.167 52.112,130.242 52.000,130.333 52.000 C 130.425 52.000,130.500 51.887,130.500 51.750 C 130.500 51.612,130.575 51.500,130.667 51.500 C 130.956 51.500,131.500 50.847,131.500 50.500 C 131.500 50.317,131.580 50.167,131.679 50.167 C 131.909 50.167,132.333 49.743,132.333 49.512 C 132.333 49.414,132.446 49.333,132.583 49.333 C 132.721 49.333,132.833 49.221,132.833 49.083 C 132.833 48.946,132.933 48.833,133.055 48.833 C 133.177 48.833,133.377 48.646,133.500 48.417 C 133.623 48.188,133.823 48.000,133.945 48.000 C 134.067 48.000,134.167 47.887,134.167 47.750 C 134.167 47.612,134.240 47.500,134.330 47.500 C 134.420 47.500,134.541 47.313,134.598 47.083 C 134.656 46.854,134.770 46.667,134.851 46.667 C 134.933 46.667,135.000 46.554,135.000 46.417 C 135.000 46.279,135.081 46.167,135.179 46.167 C 135.413 46.167,136.333 45.246,136.333 45.013 C 136.333 44.914,136.446 44.833,136.583 44.833 C 136.721 44.833,136.833 44.721,136.833 44.583 C 136.833 44.446,136.914 44.333,137.012 44.333 C 137.330 44.333,137.667 43.868,137.667 43.429 C 137.667 43.159,137.759 43.000,137.917 43.000 C 138.054 43.000,138.167 42.925,138.167 42.833 C 138.167 42.742,138.279 42.667,138.417 42.667 C 138.554 42.667,138.667 42.554,138.667 42.417 C 138.667 42.279,138.742 42.167,138.833 42.167 C 138.936 42.167,139.000 41.306,139.000 39.917 L 139.000 37.667 129.417 37.667 L 119.833 37.667 119.833 40.331 M108.310 43.000 C 108.516 43.000,108.667 43.106,108.667 43.250 C 108.667 43.387,108.739 43.500,108.828 43.500 C 109.045 43.500,110.000 44.445,110.000 44.661 C 110.000 44.756,110.112 44.833,110.250 44.833 C 110.406 44.833,110.500 44.991,110.500 45.255 C 110.500 45.487,110.612 45.720,110.750 45.773 C 111.546 46.078,110.536 46.167,106.250 46.167 C 101.811 46.167,100.849 46.073,101.750 45.727 C 101.888 45.674,102.000 45.460,102.000 45.250 C 102.000 45.040,102.112 44.826,102.250 44.773 C 102.388 44.720,102.500 44.525,102.500 44.339 C 102.500 44.152,102.575 44.000,102.667 44.000 C 102.758 44.000,102.833 43.887,102.833 43.750 C 102.833 43.583,103.000 43.500,103.333 43.500 C 103.667 43.500,103.833 43.417,103.833 43.250 C 103.833 43.094,103.991 43.000,104.250 43.000 C 104.479 43.000,104.667 42.928,104.667 42.840 C 104.667 42.587,107.547 42.542,107.768 42.792 C 107.870 42.906,108.114 43.000,108.310 43.000 M341.333 42.833 C 341.333 42.925,341.521 43.000,341.750 43.000 C 342.023 43.000,342.167 43.093,342.167 43.269 C 342.167 43.451,342.269 43.512,342.479 43.457 C 342.719 43.394,342.772 43.448,342.709 43.688 C 342.663 43.864,342.714 44.000,342.826 44.000 C 343.072 44.000,343.500 44.415,343.500 44.655 C 343.500 44.753,343.613 44.833,343.750 44.833 C 343.906 44.833,344.000 44.991,344.000 45.255 C 344.000 45.487,344.113 45.720,344.250 45.773 C 345.046 46.078,344.036 46.167,339.750 46.167 C 335.639 46.167,335.000 46.133,335.000 45.917 C 335.000 45.779,335.112 45.667,335.250 45.667 C 335.406 45.667,335.500 45.509,335.500 45.250 C 335.500 45.021,335.574 44.833,335.663 44.833 C 335.753 44.833,335.874 44.646,335.932 44.417 C 335.989 44.188,336.103 44.000,336.185 44.000 C 336.266 44.000,336.333 43.887,336.333 43.750 C 336.333 43.583,336.500 43.500,336.833 43.500 C 337.167 43.500,337.333 43.417,337.333 43.250 C 337.333 43.094,337.491 43.000,337.750 43.000 C 337.979 43.000,338.167 42.925,338.167 42.833 C 338.167 42.734,338.806 42.667,339.750 42.667 C 340.694 42.667,341.333 42.734,341.333 42.833 M287.701 43.312 C 287.666 43.477,287.778 43.518,288.097 43.457 C 288.435 43.392,288.561 43.447,288.623 43.686 C 288.675 43.883,288.854 44.000,289.103 44.000 C 289.321 44.000,289.500 44.075,289.500 44.167 C 289.500 44.258,289.612 44.333,289.750 44.333 C 289.887 44.333,290.000 44.438,290.000 44.566 C 290.000 44.693,290.117 44.843,290.261 44.898 C 290.404 44.953,290.478 45.067,290.426 45.152 C 290.373 45.237,290.443 45.420,290.582 45.558 C 290.720 45.696,290.833 45.961,290.833 46.146 C 290.833 46.332,290.956 46.552,291.106 46.636 C 291.515 46.865,291.522 49.965,291.114 50.193 C 290.959 50.279,290.833 50.502,290.833 50.687 C 290.833 50.872,290.720 51.137,290.582 51.275 C 290.443 51.414,290.373 51.596,290.426 51.681 C 290.478 51.766,290.404 51.881,290.261 51.936 C 290.117 51.991,290.000 52.140,290.000 52.268 C 290.000 52.396,289.887 52.500,289.750 52.500 C 289.612 52.500,289.500 52.608,289.500 52.739 C 289.500 52.903,289.369 52.954,289.083 52.902 C 288.789 52.849,288.667 52.901,288.667 53.080 C 288.667 53.250,288.503 53.333,288.167 53.333 C 287.856 53.333,287.682 53.412,287.708 53.542 C 287.738 53.692,287.366 53.764,286.375 53.798 C 285.227 53.839,285.000 53.804,285.000 53.590 C 285.000 53.427,284.847 53.333,284.583 53.333 C 284.317 53.333,284.167 53.240,284.167 53.073 C 284.167 52.931,284.091 52.860,283.999 52.917 C 283.907 52.974,283.786 52.904,283.731 52.761 C 283.676 52.617,283.452 52.500,283.232 52.500 C 282.931 52.500,282.833 52.409,282.833 52.130 C 282.833 51.927,282.653 51.606,282.432 51.416 C 282.212 51.226,281.991 50.813,281.941 50.497 C 281.891 50.181,281.771 49.896,281.675 49.864 C 281.387 49.768,281.452 47.191,281.750 46.893 C 281.887 46.755,282.000 46.461,282.000 46.238 C 282.000 46.015,282.075 45.833,282.167 45.833 C 282.258 45.833,282.333 45.729,282.333 45.601 C 282.333 45.473,282.446 45.326,282.583 45.273 C 282.721 45.220,282.833 44.987,282.833 44.755 C 282.833 44.416,282.915 44.333,283.250 44.333 C 283.479 44.333,283.667 44.258,283.667 44.167 C 283.667 44.075,283.779 44.000,283.917 44.000 C 284.054 44.000,284.167 43.887,284.167 43.750 C 284.167 43.594,284.324 43.500,284.583 43.500 C 284.847 43.500,285.000 43.406,285.000 43.243 C 285.000 43.029,285.227 42.995,286.375 43.035 C 287.436 43.072,287.739 43.136,287.701 43.312 M313.667 43.269 C 313.667 43.465,313.778 43.518,314.071 43.462 C 314.363 43.406,314.497 43.469,314.555 43.692 C 314.608 43.894,314.788 44.000,315.078 44.000 C 315.330 44.000,315.475 44.072,315.417 44.167 C 315.360 44.258,315.431 44.333,315.573 44.333 C 315.716 44.333,315.833 44.446,315.833 44.583 C 315.833 44.721,315.946 44.833,316.083 44.833 C 316.221 44.833,316.333 44.946,316.333 45.083 C 316.333 45.221,316.451 45.333,316.595 45.333 C 316.780 45.333,316.825 45.430,316.750 45.667 C 316.679 45.890,316.731 46.035,316.905 46.102 C 317.300 46.254,317.295 50.582,316.899 50.734 C 316.745 50.793,316.673 50.942,316.729 51.089 C 316.827 51.345,316.304 52.000,316.000 52.000 C 315.908 52.000,315.833 52.112,315.833 52.250 C 315.833 52.387,315.716 52.500,315.573 52.500 C 315.431 52.500,315.360 52.575,315.417 52.667 C 315.473 52.758,315.440 52.843,315.343 52.854 C 315.246 52.866,315.092 52.894,315.000 52.917 C 314.908 52.940,314.758 52.968,314.667 52.979 C 314.575 52.991,314.500 53.102,314.500 53.227 C 314.500 53.379,314.363 53.428,314.083 53.374 C 313.778 53.316,313.667 53.366,313.667 53.564 C 313.667 53.786,313.463 53.833,312.500 53.833 C 311.574 53.833,311.333 53.782,311.333 53.583 C 311.333 53.403,311.148 53.333,310.667 53.333 C 310.156 53.333,310.000 53.269,310.000 53.056 C 310.000 52.903,309.957 52.820,309.906 52.872 C 309.791 52.987,308.667 51.888,308.667 51.661 C 308.667 51.572,308.593 51.500,308.503 51.500 C 308.413 51.500,308.293 51.313,308.235 51.083 C 308.178 50.854,308.064 50.667,307.982 50.667 C 307.900 50.667,307.833 50.402,307.833 50.078 C 307.833 49.709,307.740 49.454,307.583 49.394 C 307.404 49.325,307.333 49.044,307.333 48.399 C 307.333 47.711,307.392 47.500,307.583 47.500 C 307.759 47.500,307.833 47.323,307.833 46.905 C 307.833 46.577,307.947 46.196,308.085 46.058 C 308.223 45.920,308.293 45.737,308.241 45.652 C 308.188 45.567,308.263 45.453,308.406 45.398 C 308.549 45.343,308.667 45.193,308.667 45.066 C 308.667 44.938,308.779 44.833,308.917 44.833 C 309.054 44.833,309.167 44.734,309.167 44.611 C 309.167 44.489,309.354 44.289,309.583 44.167 C 309.813 44.044,310.000 43.844,310.000 43.722 C 310.000 43.574,310.223 43.500,310.667 43.500 C 311.148 43.500,311.333 43.431,311.333 43.250 C 311.333 43.052,311.574 43.000,312.500 43.000 C 313.463 43.000,313.667 43.047,313.667 43.269 M155.167 51.333 C 155.167 52.193,155.108 52.500,154.945 52.500 C 154.823 52.500,154.623 52.688,154.500 52.917 C 154.377 53.146,154.177 53.333,154.055 53.333 C 153.933 53.333,153.833 53.446,153.833 53.583 C 153.833 53.721,153.729 53.833,153.601 53.833 C 153.473 53.833,153.324 53.951,153.269 54.095 C 153.202 54.269,153.056 54.321,152.834 54.250 C 152.597 54.175,152.500 54.220,152.500 54.405 C 152.500 54.624,152.243 54.667,150.917 54.667 C 149.594 54.667,149.333 54.624,149.333 54.407 C 149.333 54.264,149.272 54.185,149.196 54.232 C 149.043 54.326,148.500 53.754,148.500 53.498 C 148.500 53.407,148.387 53.333,148.250 53.333 C 148.058 53.333,148.000 53.120,148.000 52.417 C 148.000 51.876,148.073 51.500,148.179 51.500 C 148.277 51.500,148.464 51.393,148.595 51.262 C 148.726 51.131,148.833 50.943,148.833 50.845 C 148.833 50.747,149.133 50.667,149.500 50.667 C 149.981 50.667,150.167 50.597,150.167 50.417 C 150.167 50.206,150.556 50.167,152.667 50.167 L 155.167 50.167 155.167 51.333 M208.667 51.261 C 208.667 52.309,208.640 52.381,208.042 52.949 C 207.698 53.275,207.435 53.608,207.458 53.688 C 207.481 53.768,207.420 53.833,207.321 53.833 C 207.223 53.833,207.034 53.943,206.900 54.076 C 206.766 54.210,206.552 54.279,206.425 54.230 C 206.297 54.181,206.119 54.278,206.030 54.445 C 205.810 54.856,202.833 54.809,202.833 54.395 C 202.833 54.259,202.758 54.193,202.667 54.250 C 202.575 54.307,202.500 54.236,202.500 54.093 C 202.500 53.950,202.387 53.833,202.250 53.833 C 202.112 53.833,202.000 53.721,202.000 53.583 C 202.000 53.446,201.887 53.333,201.750 53.333 C 201.558 53.333,201.500 53.120,201.500 52.417 C 201.500 51.713,201.558 51.500,201.750 51.500 C 201.887 51.500,202.000 51.425,202.000 51.333 C 202.000 51.242,202.112 51.167,202.250 51.167 C 202.387 51.167,202.500 51.054,202.500 50.917 C 202.500 50.736,202.685 50.667,203.167 50.667 C 203.648 50.667,203.833 50.597,203.833 50.417 C 203.833 50.206,204.213 50.167,206.250 50.167 L 208.667 50.167 208.667 51.261 " stroke="none" fill="#444444" fill-rule="evenodd"></path><path id="path1" d="M375.248 45.083 C 375.248 59.750,375.268 65.725,375.292 58.362 C 375.316 50.998,375.316 38.998,375.292 31.695 C 375.268 24.392,375.248 30.417,375.248 45.083 M291.372 48.500 C 291.372 48.821,291.406 48.952,291.448 48.792 C 291.490 48.631,291.490 48.369,291.448 48.208 C 291.406 48.048,291.372 48.179,291.372 48.500 M327.833 48.407 C 327.833 48.631,327.895 48.852,327.970 48.898 C 328.045 48.944,328.074 48.761,328.034 48.491 C 327.947 47.896,327.833 47.848,327.833 48.407 " stroke="none" fill="#484444" fill-rule="evenodd"></path><path id="path2" d="M375.248 45.083 C 375.248 59.750,375.268 65.725,375.292 58.362 C 375.316 50.998,375.316 38.998,375.292 31.695 C 375.268 24.392,375.248 30.417,375.248 45.083 M291.372 48.500 C 291.372 48.821,291.406 48.952,291.448 48.792 C 291.490 48.631,291.490 48.369,291.448 48.208 C 291.406 48.048,291.372 48.179,291.372 48.500 M327.833 48.407 C 327.833 48.631,327.895 48.852,327.970 48.898 C 328.045 48.944,328.074 48.761,328.034 48.491 C 327.947 47.896,327.833 47.848,327.833 48.407 " stroke="none" fill="#484444" fill-rule="evenodd"></path><path id="path3" d="M375.248 45.083 C 375.248 59.750,375.268 65.725,375.292 58.362 C 375.316 50.998,375.316 38.998,375.292 31.695 C 375.268 24.392,375.248 30.417,375.248 45.083 M291.372 48.500 C 291.372 48.821,291.406 48.952,291.448 48.792 C 291.490 48.631,291.490 48.369,291.448 48.208 C 291.406 48.048,291.372 48.179,291.372 48.500 M327.833 48.407 C 327.833 48.631,327.895 48.852,327.970 48.898 C 328.045 48.944,328.074 48.761,328.034 48.491 C 327.947 47.896,327.833 47.848,327.833 48.407 " stroke="none" fill="#484444" fill-rule="evenodd"></path><path id="path4" d="M375.248 45.083 C 375.248 59.750,375.268 65.725,375.292 58.362 C 375.316 50.998,375.316 38.998,375.292 31.695 C 375.268 24.392,375.248 30.417,375.248 45.083 M291.372 48.500 C 291.372 48.821,291.406 48.952,291.448 48.792 C 291.490 48.631,291.490 48.369,291.448 48.208 C 291.406 48.048,291.372 48.179,291.372 48.500 M327.833 48.407 C 327.833 48.631,327.895 48.852,327.970 48.898 C 328.045 48.944,328.074 48.761,328.034 48.491 C 327.947 47.896,327.833 47.848,327.833 48.407 " stroke="none" fill="#484444" fill-rule="evenodd"></path></g></svg>