<?xml version="1.0" standalone="no"?>
<!DOCTYPE svg PUBLIC "-//W3C//DTD SVG 20010904//EN"
 "http://www.w3.org/TR/2001/REC-SVG-20010904/DTD/svg10.dtd">
<svg version="1.0" xmlns="http://www.w3.org/2000/svg"
 width="896.000000pt" height="202.000000pt" viewBox="0 0 896.000000 202.000000"
 preserveAspectRatio="xMidYMid meet">
<metadata>
Created by potrace 1.16, written by Peter Selinger 2001-2019
</metadata>
<g transform="translate(0.000000,202.000000) scale(0.100000,-0.100000)"
fill="#000000" stroke="none">
<path d="M360 1030 l0 -750 450 0 450 0 0 75 0 75 -375 0 -375 0 0 600 0 600
375 0 375 0 0 75 0 75 -450 0 -450 0 0 -750z"/>
<path d="M7650 1685 l0 -75 380 0 380 0 0 -600 0 -600 -380 0 -380 0 0 -75 0
-75 455 0 455 0 0 750 0 750 -455 0 -455 0 0 -75z"/>
<path d="M7110 1245 c0 -58 -3 -105 -7 -105 -5 0 -16 7 -27 15 -56 42 -188 26
-256 -32 -57 -49 -80 -101 -80 -186 0 -81 18 -128 68 -180 67 -68 196 -86 278
-38 34 20 34 20 34 1 0 -18 7 -20 70 -20 l70 0 0 325 0 325 -75 0 -75 0 0
-105z m-60 -200 c43 -22 60 -53 60 -111 0 -59 -21 -94 -69 -114 -90 -37 -183
58 -151 153 24 74 95 106 160 72z"/>
<path d="M1325 1316 c-85 -27 -153 -83 -193 -160 -23 -45 -26 -63 -26 -146 0
-83 3 -101 26 -145 58 -112 168 -175 302 -175 95 0 166 23 219 72 l42 38 -49
45 -49 44 -34 -29 c-66 -58 -159 -62 -231 -10 -51 37 -77 91 -77 160 0 69 26
123 77 160 71 52 165 48 231 -10 l33 -28 49 44 50 44 -42 38 c-23 22 -64 46
-93 55 -61 20 -177 21 -235 3z"/>
<path d="M3945 1316 c-85 -27 -153 -83 -193 -160 -23 -45 -26 -63 -26 -146 0
-83 3 -101 26 -145 58 -112 168 -175 302 -175 95 0 166 23 219 72 l42 38 -49
45 -49 44 -34 -29 c-90 -80 -236 -51 -289 56 -25 51 -25 137 0 188 53 107 199
136 289 56 l33 -28 49 44 50 44 -42 38 c-23 22 -64 46 -93 55 -61 20 -177 21
-235 3z"/>
<path d="M5755 1316 c-85 -27 -153 -83 -193 -160 -23 -45 -26 -63 -26 -146 0
-83 3 -101 26 -145 58 -112 168 -175 302 -175 95 0 166 23 219 72 l42 38 -49
45 -49 44 -34 -29 c-66 -58 -159 -62 -231 -10 -51 37 -77 91 -77 160 0 69 26
123 77 160 71 52 165 48 231 -10 l33 -28 49 44 50 44 -42 38 c-23 22 -64 46
-93 55 -61 20 -177 21 -235 3z"/>
<path d="M2001 1168 c-18 -5 -44 -16 -57 -25 -23 -14 -24 -14 -24 6 0 19 -5
21 -70 21 l-70 0 0 -235 0 -235 69 0 69 0 4 138 c3 108 7 142 21 163 21 32 57
49 102 49 l35 0 0 65 c0 72 -4 75 -79 53z"/>
<path d="M2298 1167 c-123 -35 -197 -158 -169 -282 27 -120 123 -189 261 -190
84 0 154 21 188 58 l22 23 -39 38 -39 39 -44 -22 c-77 -37 -163 -20 -193 38
l-16 31 181 0 180 0 0 33 c0 94 -59 191 -137 223 -49 21 -141 26 -195 11z
m158 -131 c19 -19 34 -39 34 -45 0 -7 -37 -11 -110 -11 -60 0 -110 3 -110 8 1
18 29 56 51 68 13 7 41 13 63 14 30 0 45 -7 72 -34z"/>
<path d="M3312 1171 c-57 -15 -122 -42 -122 -52 0 -4 10 -29 22 -54 16 -33 26
-44 38 -39 113 49 193 44 219 -13 6 -13 11 -26 11 -28 0 -3 -39 -5 -87 -5
-113 0 -154 -12 -192 -56 -55 -62 -38 -159 36 -205 53 -33 162 -34 216 -2 36
22 37 22 37 3 0 -18 7 -20 65 -20 l65 0 0 168 c0 157 -2 172 -23 213 -31 58
-89 88 -183 94 -38 2 -84 0 -102 -4z m168 -300 c0 -20 -9 -37 -31 -55 -57 -48
-146 -25 -137 35 4 32 42 49 111 49 56 0 57 0 57 -29z"/>
<path d="M4512 1171 c-57 -15 -122 -42 -122 -52 0 -4 10 -29 22 -54 16 -33 26
-44 38 -39 113 49 193 44 219 -13 6 -13 11 -26 11 -28 0 -3 -39 -5 -87 -5
-113 0 -154 -12 -192 -56 -55 -62 -38 -159 36 -205 53 -33 162 -34 216 -2 36
22 37 22 37 3 0 -18 7 -20 65 -20 l65 0 0 168 c0 157 -2 172 -23 213 -31 58
-89 88 -183 94 -38 2 -84 0 -102 -4z m168 -300 c0 -20 -9 -37 -31 -55 -57 -48
-146 -25 -137 35 4 32 42 49 111 49 56 0 57 0 57 -29z"/>
<path d="M5173 1171 c-18 -5 -44 -16 -58 -25 -24 -16 -25 -16 -25 4 0 18 -6
20 -70 20 l-70 0 0 -235 0 -235 70 0 70 0 0 123 c0 67 5 139 11 160 23 83 144
104 178 30 6 -14 11 -84 11 -168 l0 -145 76 0 76 0 -4 173 c-3 159 -5 175 -27
213 -13 24 -40 51 -62 64 -43 24 -126 34 -176 21z"/>
<path d="M6345 1171 c-58 -15 -116 -52 -145 -92 -87 -120 -48 -288 82 -356 72
-37 189 -39 260 -4 181 88 183 344 4 430 -48 24 -153 35 -201 22z m125 -126
c36 -19 60 -62 60 -110 0 -128 -161 -172 -215 -59 -52 111 51 223 155 169z"/>
<path d="M7528 1167 c-123 -35 -197 -158 -169 -282 27 -120 123 -189 261 -190
84 0 154 21 188 58 l22 23 -39 38 -39 39 -44 -22 c-77 -37 -163 -20 -193 38
l-16 31 181 0 180 0 0 33 c0 94 -59 191 -137 223 -49 21 -141 26 -195 11z
m158 -131 c19 -19 34 -39 34 -45 0 -7 -37 -11 -110 -11 -60 0 -110 3 -110 8 1
18 29 56 51 68 13 7 41 13 63 14 30 0 45 -7 72 -34z"/>
<path d="M2690 1115 l0 -54 115 -3 114 -3 -114 -130 c-111 -126 -114 -131
-115 -177 l0 -48 215 0 215 0 0 55 0 55 -125 0 -126 0 121 137 c113 130 120
139 120 180 l0 43 -210 0 -210 0 0 -55z"/>
</g>
</svg>
